<?xml version="1.0" encoding="UTF-8" standalone="no"?>
<svg
   xmlns:dc="http://purl.org/dc/elements/1.1/"
   xmlns:cc="http://creativecommons.org/ns#"
   xmlns:rdf="http://www.w3.org/1999/02/22-rdf-syntax-ns#"
   xmlns:svg="http://www.w3.org/2000/svg"
   xmlns="http://www.w3.org/2000/svg"
   xml:space="preserve"
   style="enable-background:new 0 0 1000 1000;"
   viewBox="0 0 1000 1000"
   y="0px"
   x="0px"
   id="Layer_1"
   version="1.1"><metadata
   id="metadata101"><rdf:RDF><cc:Work
       rdf:about=""><dc:format>image/svg+xml</dc:format><dc:type
         rdf:resource="http://purl.org/dc/dcmitype/StillImage" /></cc:Work></rdf:RDF></metadata><defs
   id="defs99" />
<style
   id="style2"
   type="text/css">
	.st0{fill:#2E3192;}
</style>
<g
   id="g94">
	<g
   id="g90">
		<g
   id="g76">
			<g
   id="g28">
				<path
   id="path4"
   d="M216.2,494c5.7-0.4,11.3,0,16.7,1.3l4.3,0.9c5.4,1.2,7.9,3.9,7,7.6c-0.6,1.9-0.9,3.9-3.1,5.4      c-2.8,2.1-5.6,4.1-9.4,5.8c-1.5,0.7-3.1,1.2-4.6,1.9c-0.7,0.3-1.8,0.4-1.9,1.1c0,0.4-0.6,0.8-1.2,0.7c-2.5-0.1-3.6,1.3-5.5,1.9      c-0.9,0.3-0.7,1.2-1.8,1.7c4.5,0.2,8.9,0.4,13.5,0.7c3.6,0.3,7.4,0.4,10.7,1.3c4.9,1.2,9.1,2.9,12.9,5.2      c1.6,1.2,2.1,2.6,1.5,4.1c-0.6,1.9-1.9,3.5-3.3,5.2c-2.5,3.3-6.5,5.6-9.8,8.2c-2.8,2.4-5.9,4.4-9.4,6.1c-1.3,0.7-2.7,1.1-4,1.7      c-4.5,2.3-8.8,4.7-13.5,6.6c-2.5,0.9-4.6,2-7.3,3.1c-0.3-0.7-0.6-1.1-0.7-1.7c-0.1-0.5-0.3-0.9-1-0.9c-2.1,0-2.8-0.9-3.4-2      c-0.1-0.1-0.3-0.3-0.6-0.5c-1.9,0.7-2.4,2.6-5.5,2.7l-0.6-2.6l-2.2-9.5c0.1-0.4,0-0.9,0.1-1.2c1.5-3.3,1-6.7,1-10      c0-4.1,0-8-0.1-12.1l-0.4-10.8c-0.1-1.2,0-2.6,0.4-3.9c0.6-1,0.4-2.1,0.4-3.1c0.1-2.5,0.1-4.9,0.3-7.3c-0.1-1.2-0.3-1.3-2.1-1.5      c-1.3,0-2.8-0.1-4.2,0.3c-1.2,0.3-1.9-0.2-2.4-0.9c-0.1-0.5-0.4-1-0.6-1.7c-0.1-0.7,0.3-1.2,1.5-1.4c1.3-0.1,2.7-0.4,4-0.5      L216.2,494z M212.3,501.1c-0.1,4.5,0,9.3-0.6,13.8c-0.1,0.9-0.7,1.7-0.1,2.7c3-0.8,5.6-1.3,7-3c0.1-0.2,0.7-0.4,1-0.5      c5.9-2.8,9.2-6.8,13.2-10.6c1.3-1.3,0.6-2.2-1.8-2.4c-2.8,0-5.5-0.6-8.2-1.3c-2.5-0.9-5.8-0.6-8.9-0.1      C212.8,499.9,212.2,500.1,212.3,501.1z M211.9,527c0.9,0.5,2.4,0,2.5,0.9c-0.6,0.6-1.8,0.3-2.7,0.6c-0.4,2.1,0,4.4,0.1,6.4      c-0.1,2.2,0.4,4.4,0.4,6.5c0,2.1,0.4,4.3,0.7,6.3c0.3,2.1,0,4.3,0.7,6.3c3-1.3,5.2-2.8,8.2-3.7c1-0.2,1.8-0.7,2.1-1.3      c0.3-0.6,0.9-1.1,1.2-1.5c2.7-3.1,5.9-5.9,8.2-9.2c1-1.8,1.9-3.6,3.1-5.4c1-1.4,1-1.7-1.2-3c-0.9-0.7-2.1-0.9-3.4-1.1      c-3.6-0.7-7.1-0.5-10.7-0.5c-1.3-0.1-1.3-0.1-2.7-0.8c3.9,0.1,7.6,0.6,11.6,0.2c-0.9-1-2.2-0.9-3.3-0.8      c-2.5,0.1-4.8-0.2-7.1-0.7C217.2,526,214.7,526.2,211.9,527z"
   class="st0" />
				<path
   id="path6"
   d="M278,521.6c-0.3,0.7-2.8,0.5-3.1,1.1c0.6,0.4,1.3,0.2,1.9-0.1c3.3-1.1,5.8-1.6,9.8-0.7      c0.7,0.2,1.6,0.4,2.2,0.6c1.5,0.5,1.8,0.5,3,0.9l1.6,0.7c2.1,0.9,4.9,4.7,5.4,7.8c0.3,2.3,0,3.8-1.2,6.1      c-0.6,0.9-0.9,2.1-2.8,2.5c-0.6,0.1-0.6,0.4-0.7,0.7c-2.4,0.9-3.6,1.8-7,2.6c-1.6,0.4-3,0.9-4.5,1.3c-2.1,0.5-3.7,1.3-6.1,2.2      c1.2,2.2,1.8,4.3,3.7,6.1c1.2,1,2.2,1.2,3.4,2.3c1.6,1.4,3.1,1.7,5.6,1.1c7.4-1.8,10-1.5,16.7-4.4c2.2-0.9,2.2-1.3,4.9-1.8      c1.5-0.4,2.4-0.9,3.7-1.4c0.4-0.2,0.9-0.6,1.8-0.4c0.4,2.1-1.5,2.3-3.1,3.2c-0.7,0.4-1.5,0.6-2.1,1.2c-1.5,0.9-7.1,3.2-7.7,3.4      c-3.3,1-1.9,0.5-4.9,1.9c-0.7,0.3-3,1-3.7,1.4c-2.4,1-4.9,1-6.1,1.6c-2.8,1.3-7.3,1.3-10.7,1.4c-2.1,0-4.8-0.5-6.7-1.7      c-3.6-2.2-6.2-4.2-7.7-7.1c-0.3-0.4-0.3-0.7-0.4-0.9c-0.6-1.5-1.2-2.2-1.3-3.7c0-0.8-0.1-3.4-0.3-5c-0.3-2.9,0.3-7.5,1.3-10.3      c1.2-3.4,2.4-6.8,5.8-9.6c1.9-1.5,4.2-2.6,7.1-2.9C276.2,521.5,277.7,521.2,278,521.6z M273.4,555.1c1.6,1.7,3.1,3.4,6.1,4.3      c0.1-0.2,0.3-0.3,0.4-0.4c-1.2-0.9-2.2-2-3.6-2.8c-1.5-0.9-1.6-2.3-2.8-3.4C272.5,553.6,272.7,554.3,273.4,555.1z M278.6,526      c-1.6,1.3-2.2,3.9-2.4,5.5c-0.4,3.3,0.3,6.8-0.3,10c0,0.7-0.1,1.6,0.1,2.4c1-0.1,2.5-1.1,3.1-1.3c2.2-0.9,3.9-2,5.8-2.7      c2.5-1,2.2-2.5,3-4.6c0.1-0.3,0.1-1,0.3-1.3c0.4-1.3,0-3.2-0.4-4.1c-0.7-1.4-1.2-2.2-1.5-3.2c-0.3-0.8-0.9-1.7-1.8-2      C281.3,523.7,280.7,524.2,278.6,526z M283.1,559.2c-0.6-0.9-1.3-1.2-2.4-1.3C281.1,558.5,281.6,559,283.1,559.2z"
   class="st0" />
				<path
   id="path8"
   d="M338.4,521.3c0.6,0-4,1.7-1.2,1.7c1,0-0.7,0.9-2.8,1.4c-0.1,0.1-0.9,0.4-1.5,0.5c-1.6,0.3-3.4,0.5-4.3,1.3      c-1.2,1.1-4.2,1.4-3.4,3.2c0.1,0.5,0.1,1.1,0.1,1.7c0.3,1,4.6,3.7,6.1,4.4c3.3,1.6,6.8,4.3,8.3,5.9c2.1,2.3,3.9,7.9,3.1,10.5      c-0.7,1.7-2.8,3.6-4.5,5.5c-2.2,2.7-7.7,3.5-10.7,4.4c-0.6,0.2-1.3,0.3-1.8,0.4c-1.5,0.4-5.4,0.3-7.7-0.2      c-1.6-0.3-5.6-0.9-4.5-1c0.7-0.1,1.5,0.4-2.8-1.1c-4-1.5-2.7-1.4-3.9-2.6c-1.3-1.4,0.7-0.6,0.6-0.9c-0.1-0.5-2.4-1.5-1.2-1.3      c0.6,0.1,0.4-0.1,0.9-0.1c1.2,0.1,3.3,1.4,3.1,0.8c-0.1-0.9-2.8-1.9-4-2.7c-0.6-1.3,1.9,0.4,3.4,0.8c1.3,0.4,2.8,1.3,5.6,1.6      c1.8,0.7,4.8,0.7,6.2,0.4c1.6-0.9,3.1-1.9,3.4-3.1c0.4-2.3-0.3-5.8-2.8-8.2c-2.4-2.4-6.2-4.6-9.4-6.6c-3.3-2.4-4-5.9-2.5-8.7      c1-2.2,2.5-4.1,6.5-4.6c0.6-0.1,1.2-0.3,1.6-0.7c2.4-1.1,4.9-1.1,7.6-1.4c2.1-0.3,4.3-0.6,6.2-1.1      C334.2,520.6,336.3,521.3,338.4,521.3z M318.2,537.2c-1-0.1,2.2,2.4,2.8,3l2.8,2.7c0.7,0.5,1.6,1.2,2.4,1.2c0-0.4,0.3-0.9,0-1.2      c0,0-0.6-0.4-1.6-1.2l-3.7-3L318.2,537.2z"
   class="st0" />
				<path
   id="path10"
   d="M365.4,507.9c0.9,1.9,1.3,4.2,1.9,6.2c3.1-0.2,4.3,0,5.9-0.3c1-0.1,6.7-0.6,3.4,0c0,0.3,5.1-0.4,6.2-0.4      c1.8,0,6.8,0.8,4.2,1.5c-1,0.3,1.9,0.6,2.7,1c-2.1,1.4-6.7,1.4-10,1.8c-1,0.1-2.8-0.1-4.8,0.1c-0.7,0.1-3.7,0.5-4.9,0.4      c-2.2-0.2-2.4,0.1-2.2,1.5c0.1,3.5,1,6.8,1.3,10.2c0.3,2.9,0.7,5.9,0.4,8.7c-0.1,3.5,0.9,6.8,1.3,10.2c0.1,2,0.6,4,0.9,6      c0.3,1.4,1.8,2.3,3.4,3c0.4,0.3,0.9,0.3,1.5,0.1l3-0.9c4.2-1.3,7.7-3.2,9.7-3.2c1.2,0,0.6,2.1-1.8,2.9c-2.2,0.9-3,2-4.8,2.7      c-2.2,0.9-2.4,1.4-4.8,2c-0.6,0.1-1.5,0.4-2.1,0.7c-3.1,1.6-5.2,1.7-9.5,1.5c-0.9,0-1.6-0.5-2.7,0.1c-0.4,0.3-0.9-0.2-1.2-0.5      c-0.6-0.8-1-1.5-1.6-2.3c-0.3-0.5-0.4-0.9-1.5-0.7c-0.6,0.2-0.7,0-1-0.3c-1.9-1.7-3.3-3.5-3.9-5.7c-0.6-2.7-0.6-5.5-0.6-8.2      c0.1-4.6-0.3-9.4,0.1-14c0.4-3.9,0.7-7.7,1-11.5c0-0.6,0.3-1.2-0.3-2c-2.1,0.3-7.6,0.4-7.6-0.2c1.5-0.1,4.2-0.7,5.9-0.8      c-2.2-0.5-5.4,0.1-7.1,0.2c-3.1,0-4-0.1-4-2.3c3.1-0.2,8.2-0.9,11.4-1.1c1,0,0.9-0.1,0.9-0.8c0.1-1,0.1-2.1,0-3.1      c-0.3-1.4,0.3-2.8,0.7-4.4c1-0.5,0.4,2,1.5,3c1-1.5,0.9-2.9,0.6-4.4c-0.1-1.2,0.3-2.1,2.1-2.7      C363.1,503.4,364.4,505.7,365.4,507.9z M368,557.2c0,0.4,0.7,0.3,0.9,0.6c0.4,0.7,3.9,1.3,1.9,0.1c-1.6-1-3.1-3.5-3.7-3.5      C366.8,554.3,368,557,368,557.2z"
   class="st0" />
				<path
   id="path12"
   d="M476.5,496c3,1.1,4.5,3.1,4.6,5.2c0.3,3.9,0.9,16.7-2.8,13.6c-2.1-1.7-0.7,1-1.8,1.7      c-0.7,0.5-0.6,1.1-1.2,1.6c-3.9-2.4-3.7-5.7-4.6-8.6c-0.7-2.5-1.2-4.9-1.5-7.4c-0.4-3.5-7.1-5.7-12.5-4.1c1,0.1,1.6,0.2,2.2,0.2      c0.3,0.2,0.3,0.4,0,0.5c-2.4,1-3.6,2.4-4.5,4.2c-1,2.1-2.7,4.1-3.1,6.2c-0.6,2.9-2.5,5.7-3.3,8.6c-0.6,1.7-1.2,3.4-1.5,5.2      c-0.7,3.8,0,10-0.3,12.6c-0.1,0.6-0.4,1.1-0.3,1.7c0.6,1.5,0.3,3,0.1,4.5c-0.1,1.1,1.8,2.2,1.9,3.2c0.4,2.7,1.2,5.4,3.4,7.9      c1.6,1.8,3.9,2.7,7.1,2.5l6.1-0.3c1,0,1.8-0.4,2.7-0.8c4-1.5,5.2-1.8,8.6-3.8c0.4-0.2,2.1-0.7,4-1.8c1.8-1.1,3.6-1.9,5.4-3.1      c1-0.7,2.8-1.2,3.7-1.3c0.7,0.8-1.8,2.2-0.6,2.7c0,0.2-0.1,0.4-0.1,0.5c-1,0.9-2.8,1.2-3.6,2c-1,1.1-1.2,1.7-2.2,2.5      c-0.9,0.6-1.9,1-3,1.6c-0.4,0.3-0.9,0.8-1.5,1.2c-3.1,2.2-4.2,3.1-7.1,4.1c-2.7,0.9-5.2,1.9-7.7,3c-2.5,1-5.5,1.5-8.3,2.2      c-2.7,0.6-3.7-0.3-6.1,0.4c-0.4,0.1-1-0.2-1.5-0.3c-0.7-0.2-1.5-0.4-2.1,0c-0.1,0.2-0.6,0.3-0.7,0.3c-2.8-0.7-4.8-0.9-7.4-1.6      c-2.1-0.6-5.5-3.6-6.4-5c-2.1-2.9-3.7-5.3-4.2-8.5c-0.1-2.5,0.3-3.8-1-6.2c-0.6-0.9,0-2.1-0.7-3.1c-0.7-0.8-0.7-1.7-0.3-2.6      c0.4-1,0.4-2.1,0.4-3.1c0.3-4.4,0-8.8,1.2-13.1c0.6-2.2,0.1-4.3,0.9-6.4c1.8-6.1,5.6-11.5,10.9-16.6c0.1-0.1,0.3-0.2,0.6-0.3      c0.1,0.1,0.4,0.1,0.6,0.2c1,0.7,1.8,0.6,2.4-0.2c1.3-1.4,3.1-2.5,5.2-3.4c0.4-0.2,0.7-0.6,1.5-0.4c3.1,0.7,6.2-0.1,9.2-0.4      C464.3,492.7,470.5,493.8,476.5,496z M430.1,520.3c-0.4,0.4-0.3,3.3-0.3,3.6c-0.6,0.8,2.2,2.6,1.6,0.8      c-0.4-1.4,2.2-10.5,0.3-10.5C431.6,514.1,430.1,520.1,430.1,520.3z"
   class="st0" />
				<path
   id="path14"
   d="M503.2,499.6c1.2,1.3,2.1,2.7,2.4,4.3c0.1,1.1,0,2.3,1.3,3.4c0.4-1.5-0.6-2.9,0-4.3c1-0.1,1.6,0.4,1.5,0.9      c0,1.6,1.3,2.9,1.9,4.4c1.8,4.1,1.5,8.3,1.9,15.3c0.3,3.8-0.4,8.6-0.6,12.3c-0.1,3.7-0.6,7.4,0.3,11.1c0.6,2,0.4,4,0.7,6      c0.1,2-0.3,3.9,0.9,5.8c2.1-0.4,2.2-0.3,3.9-1c0.4-0.2,0.4,0.4,4.3-1.1c1.5-0.6,3.4-1,3.9-1.3c2.4-1.5,6.2-2.5,9.2-3.7      c0.9-0.3,1.9-0.5,3.1-0.1c-2.8,2.3-5.7,4.3-9.7,5.7c-4,1.5-4.9,2.3-8.6,3.9c-4.3,1.9-3.1,0.9-8.2,1.6c-7.6,1-13.5-1.9-14.9-6.1      c-1.2-4.1-1.6-8.1-1.5-12.3c0.1-4.8,1.5-9.6,1-14.5c-0.6-6.7-0.3-15.1-0.1-20.6c0.1-2.9-0.3-5.8-0.6-8.7c0-0.5-0.7-1.2,0.1-1.4      c1.3-0.4,2.4-1.3,4-0.9C501.2,498.2,502.4,498.7,503.2,499.6z M508.6,559c0.4,0.5,1.2,0.6,1.9,0.2c-0.1-0.9-0.4-2.4-1.2-3.3      C508,556.7,508,558.2,508.6,559z"
   class="st0" />
				<path
   id="path16"
   d="M545.6,521.6c-0.3,0.7-2.8,0.5-3.1,1.1c0.6,0.4,1.3,0.2,1.9-0.1c3.3-1.1,5.8-1.6,9.8-0.7      c0.7,0.2,1.6,0.4,2.2,0.6c1.5,0.5,1.8,0.5,3,0.9l1.6,0.7c2.1,0.9,4.9,4.7,5.4,7.8c0.3,2.3,0,3.8-1.2,6.1      c-0.6,0.9-0.9,2.1-2.8,2.5c-0.6,0.1-0.6,0.4-0.7,0.7c-2.4,0.9-3.6,1.8-7,2.6c-1.6,0.4-3,0.9-4.5,1.3c-2.1,0.5-3.7,1.3-6.1,2.2      c1.2,2.2,1.8,4.3,3.7,6.1c1.2,1,2.2,1.2,3.4,2.3c1.6,1.4,3.1,1.7,5.7,1.1c7.4-1.8,10-1.5,16.7-4.4c2.2-0.9,2.2-1.3,4.9-1.8      c1.5-0.4,2.4-0.9,3.7-1.4c0.4-0.2,0.9-0.6,1.8-0.4c0.4,2.1-1.5,2.3-3.1,3.2c-0.7,0.4-1.5,0.6-2.1,1.2c-1.5,0.9-7.1,3.2-7.7,3.4      c-3.3,1-1.9,0.5-4.9,1.9c-0.7,0.3-3,1-3.7,1.4c-2.4,1-4.9,1-6.1,1.6c-2.8,1.3-7.3,1.3-10.7,1.4c-2.1,0-4.8-0.5-6.7-1.7      c-3.6-2.2-6.2-4.2-7.7-7.1c-0.3-0.4-0.3-0.7-0.4-0.9c-0.6-1.5-1.2-2.2-1.3-3.7c0-0.8-0.1-3.4-0.3-5c-0.3-2.9,0.3-7.5,1.3-10.3      c1.2-3.4,2.4-6.8,5.8-9.6c1.9-1.5,4.2-2.6,7.1-2.9C543.8,521.5,545.3,521.2,545.6,521.6z M541,555.1c1.6,1.7,3.1,3.4,6.1,4.3      c0.1-0.2,0.3-0.3,0.4-0.4c-1.2-0.9-2.2-2-3.6-2.8c-1.5-0.9-1.6-2.3-2.8-3.4C540.1,553.6,540.3,554.3,541,555.1z M546.2,526      c-1.6,1.3-2.2,3.9-2.4,5.5c-0.4,3.3,0.3,6.8-0.3,10c0,0.7-0.1,1.6,0.1,2.4c1-0.1,2.5-1.1,3.1-1.3c2.2-0.9,3.9-2,5.8-2.7      c2.5-1,2.2-2.5,3-4.6c0.1-0.3,0.1-1,0.3-1.3c0.4-1.3,0-3.2-0.4-4.1c-0.7-1.4-1.2-2.2-1.5-3.2c-0.3-0.8-0.9-1.7-1.8-2      C548.9,523.7,548.3,524.2,546.2,526z M550.7,559.2c-0.6-0.9-1.3-1.2-2.4-1.3C548.7,558.5,549.2,559,550.7,559.2z"
   class="st0" />
				<path
   id="path18"
   d="M614,523.8c2.4,1.6,3.4,3.4,2.5,5.5v0.6c0.9,2.5,0.6,4.3,0,6.8c-0.3,0.8,0.3,1.5,0.3,2.3      c0.1,3.2,0.4,6.5,0.1,9.7c0,1.2-0.7,3.3-0.9,4.5c-0.1,0.9,0.3,2.3,0.7,3.2c2.2,0.2,3.6-0.3,5.4-1.2c5.1-1.1,11-5.4,13.5-6.3      c0.1,1.1-0.6,2.5-2.5,4c-1.5,1-5.9,3.2-7.6,4.2c-2.2,1.2-5.4,2.6-7.9,3.5c-2.7,1.1-5.5,1.6-9.8,1.5c-1.5,0-2.2-0.9-3-1.5      c-0.7-0.9-1.3-1.4-2.2-2.1c-0.7,0-1.2,0.3-1.5,0.6c-0.3,0.3-0.7,0.8-1.2,0.8c-1.9,0.1-2.4,1-4.5,1.6c-2.2,0.6-3.1,0-5.4,0.1      c-0.9,0-1.6,0.4-0.1,0.4c3.4,0-0.6,0.8-5.1,0.6c-2.1-0.1-6.5-0.9-7.7-1.8c-3.3-2.6-4-3.3-4.2-5.6l-0.3-3.7      c-0.3-3.7,1.9-6.2,4.5-8.3c3-2.6,6.7-4,11.6-4.7c2.4-0.5,4.9-0.7,7.1-1.4c1.6-0.5,3,0.4,4.8,0c0.6-2.6,0-7.2-0.3-9.7      c0-1.5-0.7-1.9-3-1.3c-4.5,1.1-7.4,1.5-12.3,1.6c-0.4,0.1-1,0-1.3,0.2c-3,1.3-4.9-0.6-7.3-0.7c-0.1-0.7,0.3-0.7,0.6-0.7      c3.9-0.7,7.7-1.6,10.3-1.8c3.3-0.3,5.8-1.2,8.9-1.9c1.5-0.3,2.1-0.5,3.6-0.7c1.8-0.1,3.3,0.1,4.8,0.7c1.5,0.5,2.8,1.1,4.6,1      c0.4-0.7-0.3-0.7-1.2-1c-1.2-0.1-1.8-0.7-0.7-0.7C609.5,521.9,612.4,522.7,614,523.8z M577,557.6c1,0.4,1.3,1.1,2.2,1.5      c1,0.4,1.5,1.3,3.4,1.2c-1.6-1.2-3.3-2.3-4.3-3.6c-0.3-0.4-1.5-1.7-1.5-0.4C576.8,556.9,576.1,557.4,577,557.6z M598.8,540      c-0.6,0.5-0.7,0.8-1.5,0.8c-0.4,0-0.7-0.1-1.6,0.4c-1.5,0.8-1.6,1-3.1,1.7c-1.5,0.7-2.7,1.5-3.3,2.6c-2.7,4.2-2.1,9.1,0.1,10.4      c1.6,0.9,2.5,1.8,4.5,1.3c1.3-0.3,4.6-1.5,5.9-1.8c0.9-0.2,1-0.9,1-1.5c0-0.5-0.1-1,0-1.7c0.3-1.7-0.9-3.2-0.3-6.1      c0.3-1.3-0.3-2.5,0.1-3.8c0.4-1.1,0.1-1.7,0.1-2.9C600.3,539.5,599.1,539.8,598.8,540z"
   class="st0" />
				<path
   id="path20"
   d="M674.5,523.8l0.6,0.4c0.7,1.9,2.5,3.6,2.7,5.8c0,4.5,0,9.1-0.6,13.5c-0.3,2.3,0.1,4.5,0,6.7      c-0.1,1.7,0.9,3.3,1.5,4.9c0.3,0.9,4.6,2,5.8,1.4c5.2-2.3,9.4-3.9,14.6-6.1c0.4-0.2,0.7-0.3,1.3,0c-0.7,1.2-1.5,3.3-3.7,4      c-2.5,0.9-5.1,1.9-6.7,3.6c-1.2,1.2-2.4,1.6-4.5,2.3c-1.6,1-2.4,1.2-4.8,1.7c-1,0.5-2.1,1-3.9,1.1c-4.2,0.2-7.9-0.9-10-3.2      c-2.4-2.5-3.3-5.2-3.4-7.9c-0.3-3.1-0.3-6.1-0.1-9.3c0-4.8,0.1-9.2,1.8-13.9c0.4-1.3,0.1-2-0.1-3.3c-0.3-1.3-1.9-2.1-3.9-0.9      c-5.4,3.2-9.1,6.1-11.6,10.5c-1.5,2.8-1.3,5.6-0.9,8.3c0.1,1.1,0.1,2.3,0,3.4c-0.4,4.3-1,8.6-0.7,12.9c0,1-0.6,1.4-2.4,1.7      c-0.7,0.2-1.2,0.5-1.6,0.7c-2.1,0.9-3.7,0.8-5.2-0.8c-0.4-0.5-0.9-1.1-1.8-1.4c-0.7,0.3-0.3,0.8-0.6,1.1      c-1.3-0.4-1.6-1.1-2.1-1.9c-1.2-2.2-2.2-4.4-2.1-6.7c0-4.4-0.1-8.6-0.1-13v-16.6c0-1.3,0.1-1.3,2.1-1.1c0.7,0.1,1.5,0.2,2.2,0      c1.3-0.4,2.7-0.1,3.6,0.4c1.3,0.7,2.8,1.1,4.2,1.8c1.5,0.8,2.1,1.7,1.9,2.9c-0.1,1.9,0.4,3.7,1,5.6c1-0.5,1.3-1,1.6-1.5      c1.5-2.6,4-4.7,6.5-6.8c3-2.3,6.5-2.9,11.2-2.5C669.6,521.8,671.8,523,674.5,523.8z"
   class="st0" />
				<path
   id="path22"
   d="M708,521.6c-0.3,0.7-2.8,0.5-3.1,1.1c0.6,0.4,1.3,0.2,1.9-0.1c3.3-1.1,5.8-1.6,9.8-0.7      c0.7,0.2,1.6,0.4,2.2,0.6c1.5,0.5,1.8,0.5,3,0.9l1.6,0.7c2.1,0.9,4.9,4.7,5.4,7.8c0.3,2.3,0,3.8-1.2,6.1      c-0.6,0.9-0.9,2.1-2.8,2.5c-0.6,0.1-0.6,0.4-0.7,0.7c-2.4,0.9-3.6,1.8-7,2.6c-1.6,0.4-3,0.9-4.5,1.3c-2.1,0.5-3.7,1.3-6.1,2.2      c1.2,2.2,1.8,4.3,3.7,6.1c1.2,1,2.2,1.2,3.4,2.3c1.6,1.4,3.1,1.7,5.7,1.1c7.4-1.8,10-1.5,16.7-4.4c2.2-0.9,2.2-1.3,4.9-1.8      c1.5-0.4,2.4-0.9,3.7-1.4c0.4-0.2,0.9-0.6,1.8-0.4c0.4,2.1-1.5,2.3-3.1,3.2c-0.7,0.4-1.5,0.6-2.1,1.2c-1.5,0.9-7.1,3.2-7.7,3.4      c-3.3,1-1.9,0.5-4.9,1.9c-0.7,0.3-3,1-3.7,1.4c-2.4,1-4.9,1-6.1,1.6c-2.8,1.3-7.3,1.3-10.7,1.4c-2.1,0-4.8-0.5-6.7-1.7      c-3.6-2.2-6.2-4.2-7.7-7.1c-0.3-0.4-0.3-0.7-0.4-0.9c-0.6-1.5-1.2-2.2-1.3-3.7c0-0.8-0.1-3.4-0.3-5c-0.3-2.9,0.3-7.5,1.3-10.3      c1.2-3.4,2.4-6.8,5.8-9.6c1.9-1.5,4.2-2.6,7.1-2.9C706.2,521.5,707.7,521.2,708,521.6z M703.3,555.1c1.6,1.7,3.1,3.4,6.1,4.3      c0.1-0.2,0.3-0.3,0.4-0.4c-1.2-0.9-2.2-2-3.6-2.8c-1.5-0.9-1.6-2.3-2.8-3.4C702.5,553.6,702.6,554.3,703.3,555.1z M708.5,526      c-1.6,1.3-2.2,3.9-2.4,5.5c-0.4,3.3,0.3,6.8-0.3,10c0,0.7-0.1,1.6,0.1,2.4c1-0.1,2.5-1.1,3.1-1.3c2.2-0.9,3.9-2,5.8-2.7      c2.5-1,2.2-2.5,3-4.6c0.1-0.3,0.1-1,0.3-1.3c0.4-1.3,0-3.2-0.4-4.1c-0.7-1.4-1.2-2.2-1.5-3.2c-0.3-0.8-0.9-1.7-1.8-2      C711.2,523.7,710.6,524.2,708.5,526z M713,559.2c-0.6-0.9-1.3-1.2-2.4-1.3C711.1,558.5,711.5,559,713,559.2z"
   class="st0" />
				<path
   id="path24"
   d="M754,525.8c0,0.2,0.1,0.5,0.3,0.7c0,0.1,0.1,0.2,0.3,0.4c1.9-0.9,3.7-2,5.6-2.9c3.7-1.8,7-2.2,11.3-1.5      c2.4,0.4,4.8,1.2,6.5,2.6c-0.7,0.9-2.1,1-3.3,0.7c-1-0.3-1.6-0.3-2.2,0.2c-1,0.8-2.7,0.3-3.4,1.3l-0.9,0.5      c-4.3,1-7.3,2.6-9.4,5.4c-0.7,1.1-0.4,2.2-1.6,3.2c-0.9,0.7-1.2,1.4-1,2.5c0.1,1.7,0.3,3.5,0.3,5.2c0.1,3.8,0.7,7.5,0.9,11.2      c0.1,1.6,0,3.1,0,4.7c0,0.9-2.1,3.9-2.8,4.4c-1.9-1.5-3.6-1.6-5.8-0.2c-1,0.7-1.6-0.2-2.4-0.1c-0.6,0.3,0,0.6-0.1,0.9h-0.6      c-3-1.9-4.3-4.2-4.3-6.9c0.3-4-0.3-7.9-0.9-12c-0.3-1.8-0.1-3.5,0.1-5.3c0.6-2.4,0.6-4.7,0.4-7.1c0-1,0.3-2.1,0.3-3.1      c0.1-1.9,0-3.7-0.7-5.5c-0.3-0.3-0.3-0.8,0.4-0.9c0.7-0.2,0.7,0.4,1.2,0.6c1.3-0.5,0.9-1.3,0.9-2.1c1.2-0.6,2.7-0.5,3.6-1.2      c0.3-0.3,0.9-0.2,1.3,0C750.9,522.3,753.9,523.2,754,525.8z M777.1,527.7c-0.1,0.1-0.4,0.2-0.4,0.1c-2.4-0.6-4.2-0.4-5.9,0.3      c-1,0.6-2.2,1-3.9,1.1c0.4-0.8,1.5-0.9,2.1-1.2l0.9-0.5c0.9-0.1,1.5-0.6,2.5-0.9C774.7,526,775.6,526.2,777.1,527.7z"
   class="st0" />
				<path
   id="path26"
   d="M809.5,521.3c0.6,0-4,1.7-1.2,1.7c1,0-0.7,0.9-2.8,1.4c-0.1,0.1-0.9,0.4-1.5,0.5c-1.6,0.3-3.4,0.5-4.3,1.3      c-1.2,1.1-4.2,1.4-3.4,3.2c0.1,0.5,0.1,1.1,0.1,1.7c0.3,1,4.6,3.7,6.1,4.4c3.3,1.6,6.8,4.3,8.3,5.9c2.1,2.3,3.9,7.9,3.1,10.5      c-0.7,1.7-2.8,3.6-4.5,5.5c-2.2,2.7-7.7,3.5-10.7,4.4c-0.6,0.2-1.3,0.3-1.8,0.4c-1.5,0.4-5.4,0.3-7.7-0.2      c-1.6-0.3-5.7-0.9-4.5-1c0.7-0.1,1.5,0.4-2.8-1.1c-4-1.5-2.7-1.4-3.9-2.6c-1.3-1.4,0.7-0.6,0.6-0.9c-0.1-0.5-2.4-1.5-1.2-1.3      c0.6,0.1,0.4-0.1,0.9-0.1c1.2,0.1,3.3,1.4,3.1,0.8c-0.1-0.9-2.8-1.9-4-2.7c-0.6-1.3,1.9,0.4,3.4,0.8c1.3,0.4,2.8,1.3,5.7,1.6      c1.8,0.7,4.8,0.7,6.2,0.4c1.6-0.9,3.1-1.9,3.4-3.1c0.4-2.3-0.3-5.8-2.8-8.2c-2.4-2.4-6.2-4.6-9.4-6.6c-3.3-2.4-4-5.9-2.5-8.7      c1-2.2,2.5-4.1,6.5-4.6c0.6-0.1,1.2-0.3,1.6-0.7c2.4-1.1,4.9-1.1,7.6-1.4c2.1-0.3,4.3-0.6,6.2-1.1      C805.3,520.6,807.4,521.3,809.5,521.3z M789.3,537.2c-1-0.1,2.2,2.4,2.8,3l2.8,2.7c0.7,0.5,1.6,1.2,2.4,1.2c0-0.4,0.3-0.9,0-1.2      c0,0-0.6-0.4-1.6-1.2l-3.7-3L789.3,537.2z"
   class="st0" />
			</g>
			<g
   id="g74">
				<g
   id="g72">
					<path
   id="path30"
   d="M232.5,569.6c0.5,0,0.7,0.2,0.9,0.5c0.3,0.3,0,0.5-0.3,0.6c-0.6,0.3-0.8,0.7-1.4,1       c-0.4,0.2,0.1,0.2,0.1,0.4c-0.6,0.2-1.2,0.3-1.8,0.2c-1.2,0-2.4-0.1-3.6-0.1c-0.9,0-1.8,0-2.7,0.1c-0.8,0-1.2,0.2-1.4,0.7       c-0.6-0.1-1.1-0.3-1.8-0.3c0.4,0.6,0.1,1.3,1.3,1.7c0.3,0.1,0.3,0.4,0.3,0.6c-0.1,1,0.2,2,0.4,3c0.2,1.4,0.1,2.7,0.1,4.1       c0.1,2.1-0.1,4.1,0,6.1c0.1,0.8,0.2,1.6,0.4,2.4c0.3,1.3,0.2,2.6,0.2,4c0,0.5-0.1,1-0.1,1.6c0.1,1.2-0.3,2.4-0.3,3.6       c-0.1,0.8-0.8,1.5-1.1,2.3c0,0.1,0,0.1-0.1,0.2c-0.6,0.2-1.3,0.1-2,0.4c-0.2,0.1-0.5,0-0.8-0.1c-0.4-0.2-1-0.4-1.5-0.5       c-0.4-0.1-0.7-0.1-1.2,0c-1,0.4-2.4-0.3-2.3-1.1c0.1-1.1-0.1-2.3-0.2-3.5c-0.1-1,0-2.1,0.4-3.1c0.2-0.9,0.4-1.8-0.1-2.7       c-0.2-0.5-0.3-1-0.2-1.5c0.1-0.8-0.1-1.5-0.1-2.2c0-1.6-0.1-3.3-0.1-4.9c-0.1-1.8-0.1-3.6,0.4-5.3c0.2-0.7,0.1-1.4,0.1-2.1       c0.1-0.5-0.1-1.1,0.3-1.7c0.2-0.3,0-0.6-0.1-0.9c-0.1-0.3-0.5-0.4-0.8-0.4c-1.3,0-2.7-0.1-4.1,0c-1.4,0.1-2.8,0-4.2,0.1       c-0.4,0-0.8,0-1.2-0.3c0.2-0.2,0.4-0.2,0.6-0.3c0.4-0.1,0.6-0.2,0.5-0.5c-0.1-0.3,0.2-0.4,0.7-0.5c1.3-0.2,2.7-0.2,3.9-0.2       c2.5-0.1,4.9-0.5,7.3-0.7c3-0.2,5.9-0.7,9-0.5c1.9,0.1,3.8,0,5.7,0H232.5z M215.3,572.8c-0.3,0.3-0.3,1.3,0.2,1.3l0.4,0       c-0.2-0.4,0.1-1.1-0.4-1.4C215.5,572.7,215.4,572.8,215.3,572.8z"
   class="st0" />
					<path
   id="path32"
   d="M239.8,573.8c0.3-0.2,0.3-0.5,0.8-0.5c0.4,0,0.4,0.3,0.4,0.5c0.1,0.4,0.2,0.8,0.9,0.9       c0.3,0,0.3,0.2,0.4,0.4c0.4,0.9,0.9,1.8,1.1,2.8c0.1,0.5-0.1,1,0,1.5c0.5,1.3,0.3,2.6,0.1,4c0,0.8,0.4,1.6,0.2,2.5       c1-0.5,1.5-1,2.1-1.5c0.8-0.6,1.6-1.2,2.7-1.7c1.4-0.6,3-0.8,4.7-0.3c1.4,0.4,2.3,1,3.4,1.7c0.2,0.2,0.2,0.4,0.1,0.6       c0,0.5,0,1-0.1,1.5c0,0.5,0.2,0.9,0.2,1.4c0,1-0.3,2-0.3,3c-0.1,1.3,0.2,2.6,0.4,3.9c0.1,0.7,0.1,1.3,0.1,2       c-0.1,0.6,0.1,1.3-0.1,2c-0.1,0.3,0,0.6,0.4,0.9c0.2,0.1,0.4,0,0.6-0.1c0.4-0.1,0.1,0.4,1.4-0.5c1.4-0.9,2.7-1.1,4.3-2.1       c1-0.5,2-1,3.4-1.4c-0.1,0.1-0.1,0.9-0.1,1c-1.1,0.5-2,0.9-2.6,1.7c-0.2,0.2-0.6,0.6-1,0.7c-1,0.1-1.3,0.5-1.9,1       c-0.5,0.4-1.1,0.6-1.5,1c-0.5,0.5-1.1,0.8-1.7,1.1c-1.8,0.8-0.5,0.1-2.2,1c-0.4,0.2-0.8,0.4-1.3,0.3l-0.5,0       c-0.4,0-0.6,0.5-1,0.2c-0.6-0.3-1.4-0.5-1.7-1c-0.1-0.1-0.2-0.2-0.3-0.4c-0.4-1.1-1-2.2-0.8-3.4c0.1-0.9,0.3-1.9,0.5-2.8       c0.1-0.6,0.1-1.3-0.1-1.9c-0.5-1.5-0.1-3-0.1-4.5c0.1-1.6,0.5-2.8,0.8-4.4c0.1-0.4,0.1-0.7-0.4-0.9c-0.4-0.1-0.8-0.3-1.3-0.1       c-0.4,0.1-0.6,0.2-0.8,0.4l-1.3,0.7c-0.1,0.1-0.3,0.1-0.6,0.3c-0.7,0.4-1.3,0.9-2,1.4c-0.3,0.1-0.4,0.3-0.4,0.4       c-0.8,1.1-1.1,2-1.1,3.2c0,1.1,0.2,2.2,0.5,3.3c0.4,1.4,0.4,2.8-0.1,4.2c-0.2,0.6-0.1,1.2,0.1,1.9c0.1,0.6,0,1.2-0.2,1.8       c-0.1,0.3-0.1,0.7-0.9,0.7c-0.6,0-0.3,0.5-0.9,0.5c-0.6-0.2-1.1-0.4-1.8-0.1c-0.2,0.1-0.5,0-0.6-0.1c-0.9-0.6-1.7-1.2-1.7-2.1       c-0.1-0.3-0.1-0.6-0.4-0.8c-0.6-0.5-0.6-1-0.6-1.6c0-2-0.1-3.9,0-5.8c0-1.5-0.1-3-0.4-4.5c-0.4-1.9-0.3-3.7-0.3-5.6       c0-2.2,0-4.4,0.1-6.6c0-0.7,0.2-1.4,0.6-2.1C238.1,573,239.1,573.2,239.8,573.8z"
   class="st0" />
					<path
   id="path34"
   d="M274.1,583c-0.1,0.3-1.3,0.2-1.5,0.5c0.3,0.2,0.6,0.1,0.9,0c1.5-0.5,2.7-0.8,4.6-0.3       c0.4,0.1,0.8,0.2,1.1,0.3c0.7,0.2,0.8,0.2,1.4,0.5l0.8,0.3c1,0.4,2.3,2.3,2.5,3.7c0.1,1.1,0,1.8-0.6,2.9       c-0.3,0.5-0.4,1-1.3,1.2c-0.3,0-0.3,0.2-0.4,0.3c-1.1,0.4-1.7,0.9-3.3,1.3c-0.8,0.2-1.4,0.5-2.1,0.6c-1,0.2-1.7,0.6-2.9,1       c0.6,1,0.8,2.1,1.7,2.9c0.6,0.5,1,0.6,1.6,1.1c0.8,0.7,1.5,0.8,2.7,0.5c3.5-0.9,4.7-0.7,7.8-2.1c1.1-0.5,1.1-0.6,2.3-0.9       c0.7-0.2,1.1-0.4,1.7-0.7c0.2-0.1,0.4-0.3,0.8-0.2c0.2,1-0.7,1.1-1.5,1.6c-0.4,0.2-0.7,0.3-1,0.6c-0.7,0.5-3.4,1.6-3.6,1.6       c-1.5,0.5-0.9,0.2-2.3,0.9c-0.4,0.1-1.4,0.5-1.7,0.7c-1.1,0.5-2.3,0.5-2.9,0.8c-1.3,0.6-3.4,0.6-5,0.7c-1,0-2.2-0.2-3.1-0.8       c-1.7-1-2.9-2-3.6-3.4c-0.1-0.2-0.1-0.3-0.2-0.5c-0.3-0.7-0.6-1-0.6-1.8c0-0.4-0.1-1.6-0.1-2.4c-0.1-1.4,0.1-3.6,0.6-5       c0.6-1.6,1.1-3.3,2.7-4.7c0.9-0.7,2-1.2,3.4-1.4C273.3,582.9,274,582.8,274.1,583z M272,599.1c0.8,0.8,1.5,1.6,2.9,2.1       c0.1-0.1,0.1-0.1,0.2-0.2c-0.6-0.5-1.1-1-1.7-1.4c-0.7-0.5-0.8-1.1-1.3-1.6C271.5,598.4,271.6,598.8,272,599.1z M274.4,585.1       c-0.8,0.6-1.1,1.9-1.1,2.6c-0.2,1.6,0.1,3.3-0.1,4.8c0,0.3-0.1,0.8,0.1,1.1c0.5,0,1.2-0.5,1.5-0.6c1-0.5,1.8-1,2.7-1.3       c1.2-0.5,1-1.2,1.4-2.2c0.1-0.1,0.1-0.5,0.1-0.6c0.2-0.6,0-1.6-0.2-2c-0.4-0.7-0.6-1-0.7-1.6c-0.1-0.4-0.4-0.8-0.8-1       C275.7,584,275.4,584.3,274.4,585.1z M276.5,601.1c-0.3-0.4-0.6-0.6-1.1-0.6C275.6,600.8,275.8,601,276.5,601.1z"
   class="st0" />
					<path
   id="path36"
   d="M322,569.7c2.7-0.2,5.3,0,7.8,0.6l2,0.5c2.5,0.6,3.7,1.9,3.3,3.6c-0.3,0.9-0.4,1.9-1.5,2.6       c-1.3,1-2.7,2-4.4,2.8c-0.7,0.3-1.5,0.6-2.2,0.9c-0.4,0.1-0.8,0.2-0.9,0.5c0,0.2-0.3,0.4-0.6,0.3c-1.2,0-1.7,0.6-2.6,0.9       c-0.4,0.1-0.3,0.6-0.8,0.8c2.1,0.1,4.2,0.2,6.4,0.3c1.7,0.1,3.5,0.2,5,0.6c2.3,0.6,4.3,1.4,6.1,2.5c0.8,0.6,1,1.2,0.7,2       c-0.3,0.9-0.9,1.7-1.5,2.5c-1.2,1.6-3.1,2.7-4.6,4c-1.3,1.1-2.8,2.1-4.4,3c-0.6,0.3-1.3,0.5-1.9,0.8c-2.1,1.1-4.1,2.3-6.4,3.2       c-1.2,0.5-2.2,1-3.4,1.5c-0.1-0.3-0.3-0.5-0.4-0.8c-0.1-0.2-0.1-0.4-0.5-0.5c-1,0-1.3-0.5-1.6-1c-0.1,0-0.1-0.1-0.3-0.2       c-0.9,0.3-1.1,1.3-2.6,1.3l-0.3-1.3l-1-4.6c0.1-0.2,0-0.4,0.1-0.6c0.7-1.6,0.5-3.2,0.5-4.8c0-2,0-3.9-0.1-5.8l-0.2-5.2       c-0.1-0.6,0-1.2,0.2-1.9c0.3-0.5,0.2-1,0.2-1.5c0.1-1.2,0.1-2.4,0.1-3.5c-0.1-0.6-0.1-0.6-1-0.7c-0.6,0-1.3,0-2,0.1       c-0.6,0.1-0.9-0.1-1.1-0.4c-0.1-0.2-0.2-0.5-0.3-0.8c-0.1-0.3,0.1-0.6,0.7-0.7c0.6,0,1.3-0.2,1.9-0.2L322,569.7z M320.2,573.1       c-0.1,2.2,0,4.5-0.3,6.7c-0.1,0.4-0.4,0.8-0.1,1.3c1.4-0.4,2.7-0.6,3.3-1.5c0.1-0.1,0.4-0.2,0.5-0.2c2.8-1.4,4.3-3.3,6.2-5.1       c0.6-0.6,0.3-1-0.8-1.1c-1.3,0-2.6-0.3-3.8-0.6c-1.2-0.4-2.7-0.3-4.2,0C320.4,572.5,320.1,572.6,320.2,573.1z M320,585.6       c0.4,0.2,1.1,0,1.2,0.4c-0.3,0.3-0.8,0.1-1.3,0.3c-0.2,1,0,2.1,0.1,3.1c-0.1,1,0.2,2.1,0.2,3.1c0,1,0.2,2.1,0.4,3.1       c0.1,1,0,2.1,0.4,3.1c1.4-0.6,2.4-1.4,3.8-1.8c0.5-0.1,0.8-0.3,1-0.6c0.1-0.3,0.4-0.5,0.6-0.7c1.3-1.5,2.8-2.8,3.8-4.4       c0.5-0.9,0.9-1.7,1.5-2.6c0.5-0.7,0.5-0.8-0.6-1.5c-0.4-0.3-1-0.5-1.6-0.5c-1.7-0.3-3.4-0.2-5-0.2c-0.6,0-0.6,0-1.3-0.4       c1.8,0,3.6,0.3,5.5,0.1c-0.4-0.5-1.1-0.5-1.5-0.4c-1.2,0-2.2-0.1-3.4-0.3C322.5,585.1,321.3,585.2,320,585.6z"
   class="st0" />
					<path
   id="path38"
   d="M353.9,583c-0.1,0.3-1.3,0.2-1.5,0.5c0.3,0.2,0.6,0.1,0.9,0c1.5-0.5,2.7-0.8,4.6-0.3       c0.4,0.1,0.8,0.2,1,0.3c0.7,0.2,0.8,0.2,1.4,0.5l0.8,0.3c1,0.4,2.3,2.3,2.5,3.7c0.1,1.1,0,1.8-0.6,2.9c-0.3,0.5-0.4,1-1.3,1.2       c-0.3,0-0.3,0.2-0.4,0.3c-1.1,0.4-1.7,0.9-3.3,1.3c-0.8,0.2-1.4,0.5-2.1,0.6c-1,0.2-1.7,0.6-2.9,1c0.6,1,0.8,2.1,1.7,2.9       c0.6,0.5,1,0.6,1.6,1.1c0.8,0.7,1.5,0.8,2.7,0.5c3.5-0.9,4.7-0.7,7.8-2.1c1.1-0.5,1.1-0.6,2.3-0.9c0.7-0.2,1.1-0.4,1.7-0.7       c0.2-0.1,0.4-0.3,0.8-0.2c0.2,1-0.7,1.1-1.5,1.6c-0.4,0.2-0.7,0.3-1,0.6c-0.7,0.5-3.4,1.6-3.6,1.6c-1.5,0.5-0.9,0.2-2.3,0.9       c-0.4,0.1-1.4,0.5-1.7,0.7c-1.1,0.5-2.3,0.5-2.9,0.8c-1.3,0.6-3.4,0.6-5,0.7c-1,0-2.2-0.2-3.1-0.8c-1.7-1-2.9-2-3.6-3.4       c-0.1-0.2-0.1-0.3-0.2-0.5c-0.3-0.7-0.6-1-0.6-1.8c0-0.4-0.1-1.6-0.1-2.4c-0.1-1.4,0.1-3.6,0.6-5c0.6-1.6,1.1-3.3,2.7-4.7       c0.9-0.7,2-1.2,3.4-1.4C353.1,582.9,353.8,582.8,353.9,583z M351.7,599.1c0.8,0.8,1.5,1.6,2.9,2.1c0.1-0.1,0.1-0.1,0.2-0.2       c-0.6-0.5-1.1-1-1.7-1.4c-0.7-0.5-0.8-1.1-1.3-1.6C351.3,598.4,351.4,598.8,351.7,599.1z M354.2,585.1       c-0.8,0.6-1.1,1.9-1.1,2.6c-0.2,1.6,0.1,3.3-0.1,4.8c0,0.3-0.1,0.8,0.1,1.1c0.5,0,1.2-0.5,1.5-0.6c1-0.5,1.8-1,2.7-1.3       c1.2-0.5,1-1.2,1.4-2.2c0.1-0.1,0.1-0.5,0.1-0.6c0.2-0.6,0-1.6-0.2-2c-0.4-0.7-0.6-1-0.7-1.6c-0.1-0.4-0.4-0.8-0.8-1       C355.4,584,355.2,584.3,354.2,585.1z M356.3,601.1c-0.3-0.4-0.6-0.6-1.1-0.6C355.4,600.8,355.6,601,356.3,601.1z"
   class="st0" />
					<path
   id="path40"
   d="M385.1,582.8c0.3,0-1.9,0.8-0.6,0.8c0.5,0-0.4,0.4-1.3,0.7c-0.1,0-0.4,0.2-0.7,0.2c-0.8,0.1-1.6,0.2-2,0.6       c-0.6,0.5-2,0.7-1.6,1.6c0.1,0.2,0.1,0.5,0.1,0.8c0.1,0.5,2.2,1.8,2.9,2.1c1.5,0.8,3.2,2.1,3.9,2.8c1,1.1,1.8,3.8,1.5,5.1       c-0.4,0.8-1.3,1.7-2.1,2.6c-1.1,1.3-3.6,1.7-5,2.1c-0.3,0.1-0.6,0.1-0.8,0.2c-0.7,0.2-2.5,0.1-3.6-0.1       c-0.8-0.1-2.7-0.4-2.1-0.5c0.4,0,0.7,0.2-1.3-0.5c-1.9-0.7-1.3-0.7-1.8-1.2c-0.6-0.7,0.4-0.3,0.3-0.4c-0.1-0.2-1.1-0.7-0.6-0.6       c0.3,0,0.2,0,0.4,0c0.6,0,1.5,0.7,1.5,0.4c-0.1-0.4-1.3-0.9-1.9-1.3c-0.3-0.6,0.9,0.2,1.6,0.4c0.6,0.2,1.3,0.6,2.7,0.8       c0.8,0.3,2.2,0.3,2.9,0.2c0.8-0.5,1.5-0.9,1.6-1.5c0.2-1.1-0.1-2.8-1.3-4c-1.1-1.1-2.9-2.2-4.4-3.2c-1.5-1.1-1.9-2.8-1.2-4.2       c0.5-1,1.2-2,3.1-2.2c0.3,0,0.6-0.1,0.8-0.3c1.1-0.5,2.3-0.5,3.6-0.7c1-0.1,2-0.3,2.9-0.5C383.2,582.5,384.1,582.8,385.1,582.8       z M375.6,590.5c-0.5,0,1.1,1.1,1.3,1.5l1.3,1.3c0.3,0.2,0.8,0.6,1.1,0.6c0-0.2,0.1-0.4,0-0.6c0,0-0.3-0.2-0.8-0.6l-1.7-1.5       L375.6,590.5z"
   class="st0" />
					<path
   id="path42"
   d="M400.6,576.4c0.4,0.9,0.6,2,0.9,3c1.5-0.1,2,0,2.8-0.1c0.5,0,3.1-0.3,1.6,0c0,0.1,2.4-0.2,2.9-0.2       c0.8,0,3.2,0.4,2,0.7c-0.5,0.1,0.9,0.3,1.3,0.5c-1,0.7-3.1,0.7-4.7,0.9c-0.5,0-1.3,0-2.2,0c-0.4,0-1.7,0.2-2.3,0.2       c-1.1-0.1-1.1,0-1.1,0.7c0.1,1.7,0.5,3.3,0.6,4.9c0.1,1.4,0.4,2.8,0.2,4.2c-0.1,1.7,0.4,3.3,0.6,4.9c0.1,1,0.3,1.9,0.4,2.9       c0.1,0.7,0.8,1.1,1.6,1.5c0.2,0.1,0.4,0.1,0.7,0l1.4-0.5c2-0.6,3.6-1.6,4.5-1.6c0.6,0,0.3,1-0.8,1.4c-1,0.4-1.4,1-2.2,1.3       c-1,0.5-1.1,0.7-2.2,1c-0.3,0-0.7,0.2-1,0.3c-1.5,0.8-2.4,0.8-4.5,0.7c-0.4,0-0.8-0.2-1.3,0c-0.2,0.1-0.4-0.1-0.6-0.2       c-0.3-0.4-0.5-0.7-0.8-1.1c-0.1-0.2-0.2-0.5-0.7-0.3c-0.3,0.1-0.4,0-0.5-0.1c-0.9-0.8-1.5-1.7-1.8-2.7c-0.3-1.3-0.3-2.6-0.3-4       c0.1-2.2-0.1-4.5,0.1-6.8c0.2-1.9,0.3-3.7,0.5-5.6c0-0.3,0.1-0.6-0.1-1c-1,0.1-3.6,0.2-3.6-0.1c0.7,0,2-0.3,2.8-0.4       c-1-0.2-2.5,0-3.4,0.1c-1.5,0-1.9,0-1.9-1.1c1.5-0.1,3.8-0.5,5.4-0.5c0.5,0,0.4,0,0.4-0.4c0.1-0.5,0.1-1,0-1.5       c-0.1-0.7,0.1-1.4,0.3-2.1c0.5-0.2,0.2,1,0.7,1.5c0.5-0.7,0.4-1.4,0.3-2.1c-0.1-0.6,0.1-1,1-1.3       C399.5,574.2,400.2,575.3,400.6,576.4z M401.8,600.1c0,0.2,0.4,0.1,0.4,0.3c0.2,0.3,1.8,0.6,0.9,0c-0.8-0.5-1.5-1.7-1.7-1.7       C401.3,598.8,401.8,600,401.8,600.1z"
   class="st0" />
					<path
   id="path44"
   d="M441.7,569.7c0.3,0,0.2,0.3,0.2,0.5c0,0.6,0,1.2-0.1,1.8c-0.3,1.8-0.1,3.6,0,5.5c0,0.8-0.2,1.6,0.1,2.3       c0.1,0.3,0,0.6,0.5,0.9c0.9-1.7-0.2-3.5,0.2-5.2c0.5-1.7-0.1-3.5,0.3-5.3c1,0.5,0.8,1.1,0.7,1.6c0,1.2,0.1,2.4,0.1,3.6       c-0.1,2.1,0.1,4.2,0.1,6.2c0.1,2.1-0.1,4.1,0.5,6.1c0.6,1.6,0.9,3.1,1.2,4.7c0.1,1.4-0.3,2.8-0.5,4.2c-0.1,0.3-0.1,0.6-0.1,0.9       c-0.1,0.5-0.1,1-0.6,1.5c-0.4,0.5-0.4,1-0.1,1.5c0.2,0,0.4,0,0.4-0.1c0.4-0.4,0.4-0.5,0.9-0.1c0.2,0.1,0.4,0.1,0.6,0.1       c0.9,0,1.9,0,2.9-0.1c1.3-0.1,2.7-0.2,4.1-0.3c0.7,0,1.5,0,2.1,0.2c0.4,0.1,0.8,0.1,1.2,0.1c0.4,0,0.7,0,1,0.1       c0.4,0.1,0.7,0.3,0.2,0.5c-0.3,0.2-0.5,0.4-0.2,0.6c0.2,0.1,0.1,0.3-0.1,0.4c-1,0.3-1.7,0.7-2.9,0.6c-1.7-0.1-3.4,0.3-5.1,0.2       c-1.9,0-3.8,0.1-5.7,0.2c-1.8,0.1-4.2,0.1-6,0.3c-1.3,0.1-2.2-0.3-2.8-1.2c0.7-0.4,2,0,2.3-0.7c-0.1-0.2-0.4-0.3-0.6-0.5       c-0.5-0.5-1-0.9-1.1-1.5c-0.2-2.7,0-5.5-0.3-8.2c-0.2-2.3-0.1-4.6-0.3-6.8c-0.1-2.4-0.3-4.8-0.4-7.2c-0.1-1.9,0.1-3.9-0.1-5.8       c-0.1-0.5,0.3-0.6,0.8-0.6c1.1,0.1,1.9-0.5,2.9-0.5c0.2,0,0.4-0.1,0.5-0.3c0.4-0.6,1-0.7,1.9-0.7       C440.8,569.2,441,569.7,441.7,569.7z M437.9,600.8c-0.1,0.1,0,0.1,0.1,0.1c0.3,0,0.3,0,0.4-0.2c-0.1-0.1,0-0.2-0.3-0.2       C437.9,600.4,438,600.6,437.9,600.8z"
   class="st0" />
					<path
   id="path46"
   d="M469.7,582.7c0,0.2-0.4,0.4-0.4,0.6c0.6,0,1.3,0.4,1.4-0.4c0-0.1,0.3-0.1,0.4-0.1c2-0.1,3.6,0.5,5.2,1.1       c0.1,0,0.2,0.1,0.2,0.2c0.5,0.8,1.4,1.3,2.2,2c0.9,0.7,1,1.6,1.4,2.5c0.1,0.5,0.2,0.9,0.3,1.4c0,1,0.3,1.9,0.6,2.9       c0.1,0.9,0.4,1.7-0.4,2.6c-0.3,0.3-0.4,0.8-0.4,1.1c0.1,1-0.5,1.9-1.3,2.8c-0.6,0.8-1.3,1.5-2,2.2c-0.6,0.6-1.5,0.7-2.4,1       c-1.1-0.8,0.6-0.7,0.7-1.1c-0.4-0.1-0.8,0-1.1,0.1c-1.1,0.5-2.4,0.7-3.5,1c-0.9,0.3-1.8,0.3-2.8,0c-1.5-0.5-2.9-1.2-4.1-2       c-1.5-0.9-2.4-2.1-3-3.4c-0.6-1.8-0.5-3.5-0.3-5.3c0-1.7,0.6-3.3,1.4-4.9c0.9-1.7,2.2-3,4.8-3.7c0.6-0.1,1-0.4,1.5-0.5       C468.7,582.4,469.2,582.4,469.7,582.7z M469.4,584.9c-0.2,0.6-0.7,1.2-0.9,1.8c-0.3,0.6-0.6,1.2-0.5,2c0.1,0.9,0.3,1.9,0.1,2.8       c-0.1,0.7-0.2,1.3-0.1,2c0,0.5,0.1,1,0,1.6c-0.2,1.7,0.3,3.3,1.7,4.7c0.1,0.2,0.2,0.4,0.6,0.3c1-0.2,1.2,0.3,1.5,0.7       c0.6-0.1,1-0.3,1.2-0.5c1.3-1,1.9-2.2,2.1-3.4c0.3-1.9,0.4-3.7,0.5-5.6l-0.1-3.8c-0.1-1-0.6-1.8-1.8-2.4       c-0.6-0.3-1.3-0.5-2-0.2C470.9,585,470.1,585,469.4,584.9z M473.4,603c0.3,0,0.5-0.2,0.4-0.4c-0.1-0.2-0.3-0.1-0.6-0.1       c-0.2,0.1-0.4,0.1-0.6,0.4C472.7,602.9,473.1,603,473.4,603z"
   class="st0" />
					<path
   id="path48"
   d="M500.6,583.5c0.2,0.1,0.3,0.1,0.6,0c0.5-0.3,1-0.2,1.5,0.1c0.1,0,0.3,0.1,0.5,0.2c1.7,0.7,2.6,1.7,2.7,3.1       c0.1,0.7,0.2,1.5-0.5,2.1c-0.5,0.5-1.3,0.8-1.8,1.3c-0.1,0-0.3,0.1-0.5,0.1c-0.7-0.2-1,0.2-1.5,0.5c-0.6-0.5-0.8-1-0.8-1.5       c0.1-0.9,0.1-1.7,0.1-2.6c0-1.4-1.3-2.3-2.7-2.3c-0.6,0-1.1,0.1-1.4,0.5c-0.3,0.4-0.8,0.7-1.1,1c-0.3,0.3-0.6,1.1-0.4,1.6       c0,0.2,0.1,0.5-0.1,0.7c-0.6,1-0.4,2.1-0.5,3.1c0,0.6,0.1,1.1,0.4,1.7c0,0,0.1,0.1,0.1,0.1c-0.2,0.9,0.4,1.8,0.4,2.7       c-0.1,1,0,2.1,0.7,3.1c0.3,0.4,0.6,0.7,1,1c0.6,0.4,1.3,0.5,2.2,0.4c2.2-0.4,4.1-0.5,5.9-1.2c1.3-0.5,2.9-1.2,4.2-2.2       c0.5-0.4,1.2-0.6,1.8-1c0.5-0.3,1.2-0.4,2-0.3c-0.3,0.8-1.2,1.2-2,1.7l-1,0.7c-0.4,0.3-1,0.7-2.5,1.6c-0.6,0.4-1.3,0.6-2.3,1       c-0.3,0.1-1.5,0.6-1.9,0.7c-1.5,0.4-2.3,0.1-3.6,0.7c-1.5,0.7-3.1,1-4.7,0.2c-0.5-0.2-0.9-0.3-1.4-0.1c-0.5,0.1-0.8,0.1-1.3,0       c-2.5-0.9-3.9-2.3-4.3-4.2c-0.2-0.9-0.4-1.7-0.4-2.6c0-2.4-0.1-4.7,0.5-7.1c0.3-1,0.6-2.1,1.1-3c0.4-0.7,1-1.4,2.5-1.4       c0.5,0,1-0.3,1.5-0.5c1.8-0.7,3.7-0.8,5.6-0.1C499.7,583.3,500.2,583.4,500.6,583.5z M493,588.9c0.3-0.3,0.7-1.9,0.2-2.2       C492.7,586.9,492.7,588.5,493,588.9z"
   class="st0" />
					<path
   id="path50"
   d="M530.3,584c1.1,0.8,1.6,1.6,1.2,2.6v0.3c0.4,1.2,0.3,2.1,0,3.3c-0.1,0.4,0.1,0.7,0.1,1.1       c0.1,1.6,0.2,3.1,0.1,4.7c0,0.6-0.4,1.6-0.4,2.2c-0.1,0.5,0.1,1.1,0.4,1.6c1,0.1,1.7-0.1,2.5-0.6c2.4-0.5,5.2-2.6,6.4-3.1       c0.1,0.5-0.3,1.2-1.2,1.9c-0.7,0.5-2.8,1.6-3.6,2c-1,0.6-2.5,1.2-3.7,1.7c-1.3,0.5-2.6,0.8-4.6,0.7c-0.7,0-1-0.4-1.4-0.7       c-0.3-0.4-0.6-0.7-1-1c-0.3,0-0.6,0.1-0.7,0.3c-0.1,0.1-0.3,0.4-0.6,0.4c-0.9,0-1.1,0.5-2.1,0.8c-1,0.3-1.5,0-2.5,0       c-0.4,0-0.8,0.2-0.1,0.2c1.6,0-0.3,0.4-2.4,0.3c-1,0-3.1-0.4-3.6-0.9c-1.5-1.3-1.9-1.6-2-2.7l-0.1-1.8c-0.1-1.8,0.9-3,2.1-4       c1.4-1.2,3.1-1.9,5.5-2.3c1.1-0.2,2.3-0.3,3.4-0.7c0.8-0.2,1.4,0.2,2.2,0c0.3-1.2,0-3.5-0.1-4.7c0-0.7-0.4-0.9-1.4-0.6       c-2.1,0.5-3.5,0.7-5.8,0.8c-0.2,0-0.5,0-0.6,0.1c-1.4,0.6-2.3-0.3-3.4-0.3c-0.1-0.3,0.1-0.3,0.3-0.3c1.8-0.3,3.6-0.8,4.8-0.9       c1.5-0.1,2.7-0.6,4.2-0.9c0.7-0.1,1-0.2,1.7-0.3c0.8,0,1.5,0,2.2,0.3c0.7,0.2,1.3,0.5,2.2,0.5c0.2-0.3-0.1-0.3-0.6-0.5       c-0.6,0-0.8-0.3-0.3-0.3C528.2,583.1,529.6,583.5,530.3,584z M512.9,600.4c0.5,0.2,0.6,0.5,1,0.7c0.5,0.2,0.7,0.6,1.6,0.6       c-0.8-0.6-1.5-1.1-2-1.7c-0.1-0.2-0.7-0.8-0.7-0.2C512.8,600,512.5,600.2,512.9,600.4z M523.2,591.9c-0.3,0.2-0.4,0.4-0.7,0.4       c-0.2,0-0.4,0-0.8,0.2c-0.7,0.4-0.8,0.5-1.5,0.8c-0.7,0.3-1.3,0.7-1.5,1.2c-1.3,2-1,4.4,0.1,5c0.8,0.5,1.2,0.9,2.1,0.6       c0.6-0.1,2.2-0.7,2.8-0.9c0.4-0.1,0.5-0.4,0.5-0.7c0-0.2-0.1-0.5,0-0.8c0.1-0.8-0.4-1.6-0.1-2.9c0.1-0.6-0.1-1.2,0.1-1.8       c0.2-0.5,0.1-0.8,0.1-1.4C523.9,591.6,523.3,591.7,523.2,591.9z"
   class="st0" />
					<path
   id="path52"
   d="M546.1,572.3c0.6,0.6,1,1.3,1.1,2.1c0.1,0.5,0,1.1,0.6,1.6c0.2-0.7-0.3-1.4,0-2.1c0.5,0,0.8,0.2,0.7,0.4       c0,0.8,0.6,1.4,0.9,2.1c0.8,2,0.7,4,0.9,7.4c0.1,1.8-0.2,4.2-0.3,5.9c-0.1,1.8-0.3,3.6,0.1,5.3c0.3,1,0.2,1.9,0.3,2.9       c0.1,1-0.1,1.9,0.4,2.8c1-0.2,1-0.1,1.8-0.5c0.2-0.1,0.2,0.2,2-0.5c0.7-0.3,1.6-0.5,1.8-0.6c1.1-0.7,2.9-1.2,4.3-1.8       c0.4-0.1,0.9-0.2,1.5,0c-1.3,1.1-2.7,2.1-4.5,2.7c-1.9,0.7-2.3,1.1-4.1,1.9c-2,0.9-1.5,0.5-3.8,0.8c-3.6,0.5-6.4-0.9-7-3       c-0.6-2-0.8-3.9-0.7-5.9c0.1-2.3,0.7-4.7,0.5-7c-0.3-3.2-0.1-7.3-0.1-9.9c0.1-1.4-0.1-2.8-0.3-4.2c0-0.2-0.4-0.6,0.1-0.7       c0.6-0.2,1.1-0.6,1.9-0.4C545.1,571.7,545.6,571.9,546.1,572.3z M548.6,601c0.2,0.2,0.6,0.3,0.9,0.1c-0.1-0.4-0.2-1.1-0.6-1.6       C548.3,599.9,548.3,600.6,548.6,601z"
   class="st0" />
					<path
   id="path54"
   d="M604.2,570.6c1.4,0.5,2.1,1.5,2.2,2.5c0.1,1.9,0.4,8.1-1.3,6.6c-1-0.8-0.4,0.5-0.8,0.8       c-0.3,0.2-0.3,0.5-0.6,0.8c-1.8-1.1-1.7-2.7-2.2-4.2c-0.3-1.2-0.6-2.4-0.7-3.6c-0.2-1.7-3.4-2.7-5.9-2c0.5,0,0.8,0.1,1,0.1       c0.1,0.1,0.1,0.2,0,0.2c-1.1,0.5-1.7,1.1-2.1,2c-0.5,1-1.3,2-1.5,3c-0.3,1.4-1.2,2.7-1.5,4.2c-0.3,0.8-0.6,1.6-0.7,2.5       c-0.4,1.8,0,4.8-0.1,6.1c-0.1,0.3-0.2,0.5-0.1,0.8c0.3,0.7,0.1,1.5,0.1,2.2c-0.1,0.5,0.8,1,0.9,1.6c0.2,1.3,0.6,2.6,1.6,3.8       c0.8,0.9,1.8,1.3,3.4,1.2l2.9-0.1c0.5,0,0.8-0.2,1.3-0.4c1.9-0.7,2.4-0.9,4.1-1.8c0.2-0.1,1-0.3,1.9-0.9       c0.8-0.5,1.7-0.9,2.5-1.5c0.5-0.3,1.3-0.6,1.7-0.6c0.4,0.4-0.8,1-0.3,1.3c0,0.1-0.1,0.2-0.1,0.2c-0.5,0.5-1.3,0.6-1.7,1       c-0.5,0.5-0.6,0.8-1,1.2c-0.4,0.3-0.9,0.5-1.4,0.8c-0.2,0.1-0.4,0.4-0.7,0.6c-1.5,1-2,1.5-3.4,2c-1.3,0.4-2.4,0.9-3.6,1.5       c-1.2,0.5-2.6,0.7-3.9,1c-1.3,0.3-1.7-0.1-2.9,0.2c-0.2,0-0.5-0.1-0.7-0.1c-0.3-0.1-0.7-0.2-1,0c-0.1,0.1-0.3,0.1-0.3,0.1       c-1.3-0.3-2.2-0.5-3.5-0.8c-1-0.3-2.6-1.7-3-2.4c-1-1.4-1.7-2.6-2-4.1c-0.1-1.2,0.1-1.8-0.5-3c-0.3-0.5,0-1-0.3-1.5       c-0.4-0.4-0.4-0.8-0.1-1.2c0.2-0.5,0.2-1,0.2-1.5c0.1-2.1,0-4.2,0.6-6.3c0.3-1,0.1-2.1,0.4-3.1c0.8-2.9,2.7-5.6,5.1-8       c0.1,0,0.1-0.1,0.3-0.1c0.1,0,0.2,0,0.3,0.1c0.5,0.3,0.8,0.3,1.1-0.1c0.6-0.7,1.5-1.2,2.4-1.6c0.2-0.1,0.3-0.3,0.7-0.2       c1.5,0.3,2.9,0,4.3-0.2C598.5,569.1,601.4,569.6,604.2,570.6z M582.4,582.3c-0.2,0.2-0.1,1.6-0.1,1.7c-0.3,0.4,1,1.2,0.8,0.4       c-0.2-0.7,1-5.1,0.1-5.1C583.1,579.4,582.4,582.2,582.4,582.3z"
   class="st0" />
					<path
   id="path56"
   d="M619.6,572.3c0.6,0.6,1,1.3,1.1,2.1c0.1,0.5,0,1.1,0.6,1.6c0.2-0.7-0.3-1.4,0-2.1c0.5,0,0.8,0.2,0.7,0.4       c0,0.8,0.6,1.4,0.9,2.1c0.8,2,0.7,4,0.9,7.4c0.1,1.8-0.2,4.2-0.3,5.9c-0.1,1.8-0.3,3.6,0.1,5.3c0.3,1,0.2,1.9,0.3,2.9       c0.1,1-0.1,1.9,0.4,2.8c1-0.2,1-0.1,1.8-0.5c0.2-0.1,0.2,0.2,2-0.5c0.7-0.3,1.6-0.5,1.8-0.6c1.1-0.7,2.9-1.2,4.3-1.8       c0.4-0.1,0.9-0.2,1.5,0c-1.3,1.1-2.7,2.1-4.5,2.7c-1.9,0.7-2.3,1.1-4.1,1.9c-2,0.9-1.5,0.5-3.8,0.8c-3.6,0.5-6.4-0.9-7-3       c-0.6-2-0.8-3.9-0.7-5.9c0.1-2.3,0.7-4.7,0.5-7c-0.3-3.2-0.1-7.3-0.1-9.9c0.1-1.4-0.1-2.8-0.3-4.2c0-0.2-0.4-0.6,0.1-0.7       c0.6-0.2,1.1-0.6,1.9-0.4C618.6,571.7,619.2,571.9,619.6,572.3z M622.1,601c0.2,0.2,0.6,0.3,0.9,0.1c-0.1-0.4-0.2-1.1-0.6-1.6       C621.9,599.9,621.9,600.6,622.1,601z"
   class="st0" />
					<path
   id="path58"
   d="M642.4,583c-0.1,0.3-1.3,0.2-1.5,0.5c0.3,0.2,0.6,0.1,0.9,0c1.5-0.5,2.7-0.8,4.6-0.3       c0.3,0.1,0.8,0.2,1,0.3c0.7,0.2,0.8,0.2,1.4,0.5l0.8,0.3c1,0.4,2.3,2.3,2.5,3.7c0.1,1.1,0,1.8-0.6,2.9c-0.3,0.5-0.4,1-1.3,1.2       c-0.3,0-0.3,0.2-0.3,0.3c-1.1,0.4-1.7,0.9-3.3,1.3c-0.8,0.2-1.4,0.5-2.1,0.6c-1,0.2-1.7,0.6-2.9,1c0.6,1,0.8,2.1,1.7,2.9       c0.6,0.5,1.1,0.6,1.6,1.1c0.8,0.7,1.5,0.8,2.7,0.5c3.5-0.9,4.7-0.7,7.8-2.1c1-0.5,1-0.6,2.3-0.9c0.7-0.2,1.1-0.4,1.7-0.7       c0.2-0.1,0.4-0.3,0.8-0.2c0.2,1-0.7,1.1-1.5,1.6c-0.4,0.2-0.7,0.3-1,0.6c-0.7,0.5-3.4,1.6-3.6,1.6c-1.5,0.5-0.9,0.2-2.3,0.9       c-0.3,0.1-1.4,0.5-1.7,0.7c-1.1,0.5-2.3,0.5-2.9,0.8c-1.3,0.6-3.4,0.6-5,0.7c-1,0-2.2-0.2-3.1-0.8c-1.7-1-2.9-2-3.6-3.4       c-0.1-0.2-0.1-0.3-0.2-0.5c-0.3-0.7-0.6-1-0.6-1.8c0-0.4-0.1-1.6-0.1-2.4c-0.1-1.4,0.1-3.6,0.6-5c0.6-1.6,1.1-3.3,2.7-4.7       c0.9-0.7,2-1.2,3.4-1.4C641.5,582.9,642.2,582.8,642.4,583z M640.2,599.1c0.8,0.8,1.5,1.6,2.9,2.1c0.1-0.1,0.1-0.1,0.2-0.2       c-0.6-0.5-1-1-1.7-1.4c-0.7-0.5-0.8-1.1-1.3-1.6C639.8,598.4,639.8,598.8,640.2,599.1z M642.6,585.1c-0.8,0.6-1,1.9-1.1,2.6       c-0.2,1.6,0.1,3.3-0.1,4.8c0,0.3-0.1,0.8,0.1,1.1c0.5,0,1.2-0.5,1.5-0.6c1.1-0.5,1.8-1,2.7-1.3c1.2-0.5,1.1-1.2,1.4-2.2       c0.1-0.1,0.1-0.5,0.1-0.6c0.2-0.6,0-1.6-0.2-2c-0.4-0.7-0.6-1-0.7-1.6c-0.1-0.4-0.4-0.8-0.8-1       C643.9,584,643.6,584.3,642.6,585.1z M644.7,601.1c-0.3-0.4-0.6-0.6-1.1-0.6C643.8,600.8,644,601,644.7,601.1z"
   class="st0" />
					<path
   id="path60"
   d="M677.3,584c1.1,0.8,1.6,1.6,1.2,2.6v0.3c0.4,1.2,0.3,2.1,0,3.3c-0.1,0.4,0.1,0.7,0.1,1.1       c0.1,1.6,0.2,3.1,0.1,4.7c0,0.6-0.3,1.6-0.4,2.2c-0.1,0.5,0.1,1.1,0.4,1.6c1,0.1,1.7-0.1,2.5-0.6c2.4-0.5,5.2-2.6,6.4-3.1       c0.1,0.5-0.3,1.2-1.2,1.9c-0.7,0.5-2.8,1.6-3.6,2c-1,0.6-2.5,1.2-3.7,1.7c-1.3,0.5-2.6,0.8-4.6,0.7c-0.7,0-1-0.4-1.4-0.7       c-0.3-0.4-0.6-0.7-1-1c-0.4,0-0.6,0.1-0.7,0.3c-0.1,0.1-0.3,0.4-0.6,0.4c-0.9,0-1.1,0.5-2.1,0.8c-1,0.3-1.5,0-2.5,0       c-0.4,0-0.8,0.2-0.1,0.2c1.6,0-0.3,0.4-2.4,0.3c-1,0-3.1-0.4-3.6-0.9c-1.5-1.3-1.9-1.6-2-2.7l-0.1-1.8c-0.1-1.8,0.9-3,2.1-4       c1.4-1.2,3.1-1.9,5.5-2.3c1.1-0.2,2.3-0.3,3.4-0.7c0.8-0.2,1.4,0.2,2.2,0c0.3-1.2,0-3.5-0.1-4.7c0-0.7-0.4-0.9-1.4-0.6       c-2.1,0.5-3.5,0.7-5.8,0.8c-0.2,0-0.5,0-0.6,0.1c-1.4,0.6-2.3-0.3-3.4-0.3c-0.1-0.3,0.1-0.3,0.3-0.3c1.8-0.3,3.6-0.8,4.8-0.9       c1.5-0.1,2.7-0.6,4.2-0.9c0.7-0.1,1-0.2,1.7-0.3c0.8,0,1.5,0,2.2,0.3c0.7,0.2,1.3,0.5,2.2,0.5c0.2-0.3-0.1-0.3-0.6-0.5       c-0.6,0-0.8-0.3-0.3-0.3C675.3,583.1,676.6,583.5,677.3,584z M659.9,600.4c0.5,0.2,0.6,0.5,1,0.7c0.5,0.2,0.7,0.6,1.6,0.6       c-0.8-0.6-1.5-1.1-2-1.7c-0.1-0.2-0.7-0.8-0.7-0.2C659.9,600,659.5,600.2,659.9,600.4z M670.2,591.9c-0.3,0.2-0.4,0.4-0.7,0.4       c-0.2,0-0.4,0-0.8,0.2c-0.7,0.4-0.8,0.5-1.5,0.8c-0.7,0.3-1.3,0.7-1.5,1.2c-1.3,2-1,4.4,0.1,5c0.8,0.5,1.2,0.9,2.1,0.6       c0.6-0.1,2.2-0.7,2.8-0.9c0.4-0.1,0.5-0.4,0.5-0.7c0-0.2-0.1-0.5,0-0.8c0.1-0.8-0.4-1.6-0.1-2.9c0.1-0.6-0.1-1.2,0.1-1.8       c0.2-0.5,0.1-0.8,0.1-1.4C670.9,591.6,670.4,591.7,670.2,591.9z"
   class="st0" />
					<path
   id="path62"
   d="M708.6,584l0.3,0.2c0.3,0.9,1.2,1.7,1.3,2.8c0,2.2,0,4.4-0.3,6.5c-0.1,1.1,0.1,2.2,0,3.2       c-0.1,0.8,0.4,1.6,0.7,2.4c0.1,0.5,2.2,1,2.7,0.7c2.4-1.1,4.4-1.9,6.9-3c0.2-0.1,0.4-0.1,0.6,0c-0.4,0.6-0.7,1.6-1.7,1.9       c-1.2,0.4-2.4,0.9-3.1,1.7c-0.6,0.6-1.1,0.8-2.1,1.1c-0.8,0.5-1.1,0.6-2.2,0.8c-0.5,0.2-1,0.5-1.8,0.5c-2,0.1-3.7-0.4-4.7-1.6       c-1.1-1.2-1.5-2.5-1.6-3.8c-0.1-1.5-0.1-3-0.1-4.5c0-2.3,0.1-4.4,0.8-6.7c0.2-0.6,0.1-1-0.1-1.6c-0.1-0.6-0.9-1-1.8-0.4       c-2.5,1.6-4.3,2.9-5.5,5.1c-0.7,1.4-0.6,2.7-0.4,4c0.1,0.5,0.1,1.1,0,1.6c-0.2,2.1-0.5,4.2-0.3,6.2c0,0.5-0.3,0.7-1.1,0.8       c-0.3,0.1-0.6,0.2-0.8,0.3c-1,0.5-1.7,0.4-2.4-0.4c-0.2-0.2-0.4-0.5-0.8-0.7c-0.4,0.1-0.1,0.4-0.3,0.5c-0.6-0.2-0.8-0.5-1-0.9       c-0.6-1-1.1-2.1-1-3.2c0-2.1-0.1-4.2-0.1-6.2v-8c0-0.6,0.1-0.6,1-0.5c0.4,0,0.7,0.1,1.1,0c0.6-0.2,1.3,0,1.7,0.2       c0.6,0.3,1.3,0.5,2,0.9c0.7,0.4,1,0.8,0.9,1.4c-0.1,0.9,0.2,1.8,0.5,2.7c0.5-0.2,0.6-0.5,0.8-0.7c0.7-1.2,1.9-2.3,3.1-3.3       c1.4-1.1,3.1-1.4,5.2-1.2C706.3,583.1,707.4,583.7,708.6,584z"
   class="st0" />
					<path
   id="path64"
   d="M727.2,583c-0.1,0.3-1.3,0.2-1.5,0.5c0.3,0.2,0.6,0.1,0.9,0c1.5-0.5,2.7-0.8,4.6-0.3       c0.3,0.1,0.8,0.2,1,0.3c0.7,0.2,0.8,0.2,1.4,0.5l0.8,0.3c1,0.4,2.3,2.3,2.5,3.7c0.1,1.1,0,1.8-0.6,2.9c-0.3,0.5-0.4,1-1.3,1.2       c-0.3,0-0.3,0.2-0.3,0.3c-1.1,0.4-1.7,0.9-3.3,1.3c-0.8,0.2-1.4,0.5-2.1,0.6c-1,0.2-1.7,0.6-2.9,1c0.6,1,0.8,2.1,1.7,2.9       c0.6,0.5,1.1,0.6,1.6,1.1c0.8,0.7,1.5,0.8,2.7,0.5c3.5-0.9,4.7-0.7,7.8-2.1c1-0.5,1-0.6,2.3-0.9c0.7-0.2,1.1-0.4,1.7-0.7       c0.2-0.1,0.4-0.3,0.8-0.2c0.2,1-0.7,1.1-1.5,1.6c-0.4,0.2-0.7,0.3-1,0.6c-0.7,0.5-3.4,1.6-3.6,1.6c-1.5,0.5-0.9,0.2-2.3,0.9       c-0.3,0.1-1.4,0.5-1.7,0.7c-1.1,0.5-2.3,0.5-2.9,0.8c-1.3,0.6-3.4,0.6-5,0.7c-1,0-2.2-0.2-3.1-0.8c-1.7-1-2.9-2-3.6-3.4       c-0.1-0.2-0.1-0.3-0.2-0.5c-0.3-0.7-0.6-1-0.6-1.8c0-0.4-0.1-1.6-0.1-2.4c-0.1-1.4,0.1-3.6,0.6-5c0.6-1.6,1.1-3.3,2.7-4.7       c0.9-0.7,2-1.2,3.4-1.4C726.3,582.9,727,582.8,727.2,583z M725,599.1c0.8,0.8,1.5,1.6,2.9,2.1c0.1-0.1,0.1-0.1,0.2-0.2       c-0.6-0.5-1-1-1.7-1.4c-0.7-0.5-0.8-1.1-1.3-1.6C724.6,598.4,724.7,598.8,725,599.1z M727.5,585.1c-0.8,0.6-1,1.9-1.1,2.6       c-0.2,1.6,0.1,3.3-0.1,4.8c0,0.3-0.1,0.8,0.1,1.1c0.5,0,1.2-0.5,1.5-0.6c1.1-0.5,1.8-1,2.7-1.3c1.2-0.5,1.1-1.2,1.4-2.2       c0.1-0.1,0.1-0.5,0.1-0.6c0.2-0.6,0-1.6-0.2-2c-0.4-0.7-0.6-1-0.7-1.6c-0.1-0.4-0.4-0.8-0.8-1       C728.7,584,728.4,584.3,727.5,585.1z M729.6,601.1c-0.3-0.4-0.6-0.6-1.1-0.6C728.6,600.8,728.9,601,729.6,601.1z"
   class="st0" />
					<path
   id="path66"
   d="M751.7,585c0,0.1,0.1,0.2,0.1,0.3c0,0,0.1,0.1,0.1,0.2c0.9-0.5,1.7-1,2.7-1.4c1.7-0.9,3.3-1,5.3-0.7       c1.1,0.2,2.2,0.6,3.1,1.3c-0.3,0.5-1,0.5-1.5,0.3c-0.5-0.1-0.8-0.1-1,0.1c-0.5,0.4-1.3,0.1-1.6,0.6l-0.4,0.2       c-2,0.5-3.4,1.2-4.4,2.6c-0.3,0.5-0.2,1-0.8,1.6c-0.4,0.3-0.6,0.7-0.5,1.2c0.1,0.8,0.1,1.7,0.1,2.5c0.1,1.8,0.3,3.6,0.4,5.4       c0.1,0.8,0,1.5,0,2.3c0,0.4-1,1.9-1.3,2.1c-0.9-0.7-1.7-0.8-2.7-0.1c-0.5,0.3-0.8-0.1-1.1,0c-0.3,0.1,0,0.3-0.1,0.4h-0.3       c-1.4-0.9-2-2-2-3.3c0.1-1.9-0.1-3.8-0.4-5.8c-0.1-0.9-0.1-1.7,0.1-2.6c0.3-1.1,0.3-2.3,0.2-3.4c0-0.5,0.1-1,0.1-1.5       c0.1-0.9,0-1.8-0.3-2.6c-0.1-0.1-0.1-0.4,0.2-0.4c0.4-0.1,0.4,0.2,0.6,0.3c0.6-0.2,0.4-0.6,0.4-1c0.6-0.3,1.3-0.2,1.7-0.6       c0.1-0.1,0.4-0.1,0.6,0C750.2,583.3,751.6,583.7,751.7,585z M762.5,585.9c-0.1,0-0.2,0.1-0.2,0c-1.1-0.3-2-0.2-2.8,0.1       c-0.5,0.3-1,0.5-1.8,0.5c0.2-0.4,0.7-0.4,1-0.6l0.4-0.2c0.4,0,0.7-0.3,1.2-0.5C761.4,585.1,761.8,585.2,762.5,585.9z"
   class="st0" />
					<path
   id="path68"
   d="M780.6,582.8c0.3,0-1.9,0.8-0.6,0.8c0.5,0-0.4,0.4-1.3,0.7c-0.1,0-0.4,0.2-0.7,0.2c-0.8,0.1-1.6,0.2-2,0.6       c-0.6,0.5-2,0.7-1.6,1.6c0.1,0.2,0.1,0.5,0.1,0.8c0.1,0.5,2.2,1.8,2.9,2.1c1.5,0.8,3.2,2.1,3.9,2.8c1,1.1,1.8,3.8,1.5,5.1       c-0.3,0.8-1.3,1.7-2.1,2.6c-1,1.3-3.6,1.7-5,2.1c-0.3,0.1-0.6,0.1-0.8,0.2c-0.7,0.2-2.5,0.1-3.6-0.1c-0.8-0.1-2.7-0.4-2.1-0.5       c0.4,0,0.7,0.2-1.3-0.5c-1.9-0.7-1.3-0.7-1.8-1.2c-0.6-0.7,0.3-0.3,0.3-0.4c-0.1-0.2-1.1-0.7-0.6-0.6c0.3,0,0.2,0,0.4,0       c0.6,0,1.5,0.7,1.5,0.4c-0.1-0.4-1.3-0.9-1.9-1.3c-0.3-0.6,0.9,0.2,1.6,0.4c0.6,0.2,1.3,0.6,2.7,0.8c0.8,0.3,2.2,0.3,2.9,0.2       c0.8-0.5,1.5-0.9,1.6-1.5c0.2-1.1-0.1-2.8-1.3-4c-1.1-1.1-2.9-2.2-4.4-3.2c-1.5-1.1-1.9-2.8-1.2-4.2c0.5-1,1.2-2,3.1-2.2       c0.3,0,0.6-0.1,0.8-0.3c1.1-0.5,2.3-0.5,3.6-0.7c1-0.1,2-0.3,2.9-0.5C778.6,582.5,779.6,582.8,780.6,582.8z M771.1,590.5       c-0.5,0,1,1.1,1.3,1.5l1.3,1.3c0.4,0.2,0.8,0.6,1.1,0.6c0-0.2,0.1-0.4,0-0.6c0,0-0.3-0.2-0.8-0.6l-1.7-1.5L771.1,590.5z"
   class="st0" />
					<path
   id="path70"
   d="M794.6,598.1c0.2,0.6,0.6,1,1.6,1c0.3,0,0.5,0.2,0.4,0.5c-0.2,0.5-0.2,1-0.4,1.6c-0.1,0.7-1.3,1.2-2.3,1.2       c-1.1-0.1-1.8,0.3-2.7,0.1c-0.2,0-0.6,0-0.8-0.1c-0.6-0.6-1.5-1.1-1.5-1.9c0-0.7,0.5-1.4,1.4-1.9c0.7-0.4,1.5-0.6,2.1-1       C793,597.3,794.4,597.6,794.6,598.1z"
   class="st0" />
				</g>
			</g>
		</g>
		<g
   id="g88">
			<path
   id="path78"
   d="M389,442.6l1.3,4.6c1.4,5.2,5.5,9.2,10.7,10.7l4.6,1.3l-4.6,1.3c-5.2,1.4-9.2,5.5-10.7,10.7l-1.3,4.6     l-1.3-4.6c-1.4-5.2-5.5-9.2-10.7-10.7l-4.6-1.3l4.6-1.3c5.2-1.4,9.2-5.5,10.7-10.7L389,442.6z"
   class="st0" />
			<path
   id="path80"
   d="M575.6,336.3l1.6,5.7c1.8,6.5,6.9,11.6,13.4,13.4l5.7,1.6l-5.7,1.6c-6.5,1.8-11.6,6.9-13.4,13.4l-1.6,5.7     L574,372c-1.8-6.5-6.9-11.6-13.4-13.4l-5.7-1.6l5.7-1.6c6.5-1.8,11.6-6.9,13.4-13.4L575.6,336.3z"
   class="st0" />
			<path
   id="path82"
   d="M609.8,370.6l1.4,5.1c1.6,5.7,6.1,10.2,11.8,11.8l5.1,1.4l-5.1,1.4c-5.7,1.6-10.2,6.1-11.8,11.8l-1.4,5.1     l-1.4-5.1c-1.6-5.7-6.1-10.2-11.8-11.8l-5.1-1.4l5.1-1.4c5.7-1.6,10.2-6.1,11.8-11.8L609.8,370.6z"
   class="st0" />
			<path
   id="path84"
   d="M540.3,460.9c-1.9-1.9-2.5-4.8-1.4-7.3c0.3-0.8,6.5-14.2,21.4-22.2v-17.7h32.9l-101-50.5l-101,50.5h32.9     v47.2h37.3c0,0,0-5.5,0-24.2c0-9.9,8.6-14.8,16.6-17.3c9.2-2.8,19-2.8,28.2,0c8.1,2.5,16.6,7.4,16.6,17.3c0,18.7,0,24.2,0,24.2     H540.3z"
   class="st0" />
			<path
   id="path86"
   d="M545,456.3c0,0,10.3-23.3,38.4-24.2c0,0,10.5,1.4,16.2,10.4c0,0-3.5-7.7-8-13.2c0,0,9.1-3,13.5,2.2     c4.4,5.2,9.6,20,0,32.7c0,0,5.5,7.9,12.6,11.3l-4.1,4.3c0,0-10.9-4.4-17.3-12.6C596.3,467.3,568.3,472.2,545,456.3z"
   class="st0" />
		</g>
	</g>
	<path
   id="path92"
   d="M862.7,733.3H137.9c-15.1,0-27.3-12.3-27.3-27.3V295.3c0-15.1,12.3-27.3,27.3-27.3h724.8   c15.1,0,27.3,12.3,27.3,27.3V706C890,721,877.7,733.3,862.7,733.3z M137.9,275.5c-10.9,0-19.8,8.9-19.8,19.8V706   c0,10.9,8.9,19.8,19.8,19.8h724.8c10.9,0,19.8-8.9,19.8-19.8V295.3c0-10.9-8.9-19.8-19.8-19.8H137.9z"
   class="st0" />
</g>
</svg>