<?xml version="1.0" encoding="utf-8"?>
<!-- Generator: Adobe Illustrator 22.1.0, SVG Export Plug-In . SVG Version: 6.00 Build 0)  -->
<svg version="1.1" id="Layer_1" xmlns="http://www.w3.org/2000/svg" xmlns:xlink="http://www.w3.org/1999/xlink" x="0px" y="0px"
	 viewBox="0 0 180 60" style="enable-background:new 0 0 180 60;" xml:space="preserve">
<style type="text/css">
	.st0{fill:#2E3192;}
	.st1{fill:#666E71;}
</style>
<g>
	<g>
		<g>
			<g>
				<path class="st0" d="M56,29.2c0.7,0,1.4,0,2,0.2l0.5,0.1c0.6,0.1,0.9,0.5,0.8,0.9c-0.1,0.2-0.1,0.5-0.4,0.6
					c-0.3,0.2-0.7,0.5-1.1,0.7c-0.2,0.1-0.4,0.1-0.6,0.2c-0.1,0-0.2,0-0.2,0.1c0,0-0.1,0.1-0.1,0.1c-0.3,0-0.4,0.2-0.7,0.2
					c-0.1,0-0.1,0.1-0.2,0.2c0.5,0,1.1,0,1.6,0.1c0.4,0,0.9,0,1.3,0.2c0.6,0.1,1.1,0.4,1.5,0.6c0.2,0.1,0.2,0.3,0.2,0.5
					c-0.1,0.2-0.2,0.4-0.4,0.6c-0.3,0.4-0.8,0.7-1.2,1c-0.3,0.3-0.7,0.5-1.1,0.7c-0.2,0.1-0.3,0.1-0.5,0.2c-0.5,0.3-1,0.6-1.6,0.8
					c-0.3,0.1-0.6,0.2-0.9,0.4c0-0.1-0.1-0.1-0.1-0.2c0-0.1,0-0.1-0.1-0.1c-0.2,0-0.3-0.1-0.4-0.2c0,0,0,0-0.1-0.1
					c-0.2,0.1-0.3,0.3-0.7,0.3L53.6,37l-0.3-1.1c0,0,0-0.1,0-0.1c0.2-0.4,0.1-0.8,0.1-1.2c0-0.5,0-1,0-1.4l-0.1-1.3
					c0-0.1,0-0.3,0.1-0.5c0.1-0.1,0.1-0.2,0.1-0.4c0-0.3,0-0.6,0-0.9c0-0.1,0-0.2-0.2-0.2c-0.2,0-0.3,0-0.5,0c-0.1,0-0.2,0-0.3-0.1
					c0-0.1-0.1-0.1-0.1-0.2c0-0.1,0-0.1,0.2-0.2c0.2,0,0.3,0,0.5-0.1L56,29.2z M55.6,30c0,0.5,0,1.1-0.1,1.7c0,0.1-0.1,0.2,0,0.3
					c0.4-0.1,0.7-0.2,0.8-0.4c0,0,0.1,0,0.1-0.1c0.7-0.3,1.1-0.8,1.6-1.3c0.2-0.2,0.1-0.3-0.2-0.3c-0.3,0-0.7-0.1-1-0.2
					c-0.3-0.1-0.7-0.1-1.1,0C55.6,29.9,55.5,29.9,55.6,30z M55.5,33.1c0.1,0.1,0.3,0,0.3,0.1c-0.1,0.1-0.2,0-0.3,0.1
					c-0.1,0.2,0,0.5,0,0.8c0,0.3,0.1,0.5,0.1,0.8c0,0.2,0.1,0.5,0.1,0.8c0,0.2,0,0.5,0.1,0.8c0.4-0.2,0.6-0.3,1-0.4
					c0.1,0,0.2-0.1,0.2-0.2c0-0.1,0.1-0.1,0.1-0.2c0.3-0.4,0.7-0.7,1-1.1c0.1-0.2,0.2-0.4,0.4-0.6c0.1-0.2,0.1-0.2-0.1-0.4
					c-0.1-0.1-0.2-0.1-0.4-0.1c-0.4-0.1-0.9-0.1-1.3-0.1c-0.2,0-0.2,0-0.3-0.1c0.5,0,0.9,0.1,1.4,0c-0.1-0.1-0.3-0.1-0.4-0.1
					c-0.3,0-0.6,0-0.9-0.1C56.1,33,55.8,33.1,55.5,33.1z"/>
				<path class="st0" d="M63.4,32.5c0,0.1-0.3,0.1-0.4,0.1c0.1,0,0.2,0,0.2,0c0.4-0.1,0.7-0.2,1.2-0.1c0.1,0,0.2,0,0.3,0.1
					c0.2,0.1,0.2,0.1,0.4,0.1l0.2,0.1c0.2,0.1,0.6,0.6,0.6,0.9c0,0.3,0,0.5-0.1,0.7c-0.1,0.1-0.1,0.2-0.3,0.3c-0.1,0-0.1,0-0.1,0.1
					c-0.3,0.1-0.4,0.2-0.8,0.3c-0.2,0-0.4,0.1-0.5,0.2c-0.2,0.1-0.4,0.2-0.7,0.3c0.1,0.3,0.2,0.5,0.4,0.7c0.1,0.1,0.3,0.1,0.4,0.3
					c0.2,0.2,0.4,0.2,0.7,0.1c0.9-0.2,1.2-0.2,2-0.5C67,36.1,67,36,67.3,36c0.2,0,0.3-0.1,0.4-0.2c0.1,0,0.1-0.1,0.2,0
					c0.1,0.2-0.2,0.3-0.4,0.4c-0.1,0-0.2,0.1-0.2,0.1c-0.2,0.1-0.9,0.4-0.9,0.4c-0.4,0.1-0.2,0.1-0.6,0.2c-0.1,0-0.4,0.1-0.4,0.2
					c-0.3,0.1-0.6,0.1-0.7,0.2c-0.3,0.2-0.9,0.2-1.3,0.2c-0.2,0-0.6-0.1-0.8-0.2c-0.4-0.3-0.7-0.5-0.9-0.8c0,0,0-0.1-0.1-0.1
					c-0.1-0.2-0.1-0.3-0.2-0.4c0-0.1,0-0.4,0-0.6c0-0.4,0-0.9,0.2-1.2c0.1-0.4,0.3-0.8,0.7-1.2c0.2-0.2,0.5-0.3,0.9-0.4
					C63.2,32.5,63.4,32.5,63.4,32.5z M62.9,36.5c0.2,0.2,0.4,0.4,0.7,0.5c0,0,0,0,0.1,0c-0.1-0.1-0.3-0.2-0.4-0.3
					c-0.2-0.1-0.2-0.3-0.3-0.4C62.8,36.3,62.8,36.4,62.9,36.5z M63.5,33c-0.2,0.2-0.3,0.5-0.3,0.7c-0.1,0.4,0,0.8,0,1.2
					c0,0.1,0,0.2,0,0.3c0.1,0,0.3-0.1,0.4-0.2c0.3-0.1,0.5-0.2,0.7-0.3c0.3-0.1,0.3-0.3,0.4-0.6c0,0,0-0.1,0-0.2
					c0.1-0.2,0-0.4-0.1-0.5c-0.1-0.2-0.1-0.3-0.2-0.4c0-0.1-0.1-0.2-0.2-0.2C63.8,32.8,63.7,32.8,63.5,33z M64,37
					c-0.1-0.1-0.2-0.1-0.3-0.2C63.8,36.9,63.8,37,64,37z"/>
				<path class="st0" d="M70.6,32.5c0.1,0-0.5,0.2-0.1,0.2c0.1,0-0.1,0.1-0.3,0.2c0,0-0.1,0-0.2,0.1c-0.2,0-0.4,0.1-0.5,0.2
					c-0.1,0.1-0.5,0.2-0.4,0.4c0,0.1,0,0.1,0,0.2c0,0.1,0.6,0.4,0.7,0.5c0.4,0.2,0.8,0.5,1,0.7c0.2,0.3,0.5,1,0.4,1.3
					c-0.1,0.2-0.3,0.4-0.5,0.7c-0.3,0.3-0.9,0.4-1.3,0.5c-0.1,0-0.2,0-0.2,0c-0.2,0-0.6,0-0.9,0c-0.2,0-0.7-0.1-0.5-0.1
					c0.1,0,0.2,0-0.3-0.1c-0.5-0.2-0.3-0.2-0.5-0.3c-0.2-0.2,0.1-0.1,0.1-0.1c0-0.1-0.3-0.2-0.1-0.2c0.1,0,0.1,0,0.1,0
					c0.1,0,0.4,0.2,0.4,0.1c0-0.1-0.3-0.2-0.5-0.3c-0.1-0.2,0.2,0,0.4,0.1c0.2,0,0.3,0.2,0.7,0.2c0.2,0.1,0.6,0.1,0.7,0
					c0.2-0.1,0.4-0.2,0.4-0.4c0.1-0.3,0-0.7-0.3-1c-0.3-0.3-0.7-0.6-1.1-0.8c-0.4-0.3-0.5-0.7-0.3-1c0.1-0.3,0.3-0.5,0.8-0.6
					c0.1,0,0.1,0,0.2-0.1c0.3-0.1,0.6-0.1,0.9-0.2c0.2,0,0.5-0.1,0.7-0.1C70.1,32.4,70.4,32.5,70.6,32.5z M68.2,34.4
					c-0.1,0,0.3,0.3,0.3,0.4l0.3,0.3c0.1,0.1,0.2,0.1,0.3,0.1c0,0,0-0.1,0-0.1c0,0-0.1,0-0.2-0.1l-0.4-0.4L68.2,34.4z"/>
				<path class="st0" d="M73.9,30.9c0.1,0.2,0.2,0.5,0.2,0.7c0.4,0,0.5,0,0.7,0c0.1,0,0.8-0.1,0.4,0c0,0,0.6,0,0.7,0
					c0.2,0,0.8,0.1,0.5,0.2c-0.1,0,0.2,0.1,0.3,0.1C76.5,32,76,32,75.6,32.1c-0.1,0-0.3,0-0.6,0c-0.1,0-0.4,0.1-0.6,0
					c-0.3,0-0.3,0-0.3,0.2c0,0.4,0.1,0.8,0.2,1.2c0,0.4,0.1,0.7,0.1,1c0,0.4,0.1,0.8,0.2,1.2c0,0.2,0.1,0.5,0.1,0.7
					c0,0.2,0.2,0.3,0.4,0.4c0.1,0,0.1,0,0.2,0l0.4-0.1c0.5-0.2,0.9-0.4,1.2-0.4c0.1,0,0.1,0.2-0.2,0.4C76.3,36.8,76.2,37,76,37
					c-0.3,0.1-0.3,0.2-0.6,0.2c-0.1,0-0.2,0-0.2,0.1c-0.4,0.2-0.6,0.2-1.1,0.2c-0.1,0-0.2-0.1-0.3,0c-0.1,0-0.1,0-0.1-0.1
					c-0.1-0.1-0.1-0.2-0.2-0.3c0-0.1-0.1-0.1-0.2-0.1c-0.1,0-0.1,0-0.1,0c-0.2-0.2-0.4-0.4-0.5-0.7c-0.1-0.3-0.1-0.7-0.1-1
					c0-0.6,0-1.1,0-1.7c0.1-0.5,0.1-0.9,0.1-1.4c0-0.1,0-0.1,0-0.2c-0.2,0-0.9,0-0.9,0c0.2,0,0.5-0.1,0.7-0.1c-0.3-0.1-0.6,0-0.9,0
					c-0.4,0-0.5,0-0.5-0.3c0.4,0,1-0.1,1.4-0.1c0.1,0,0.1,0,0.1-0.1c0-0.1,0-0.2,0-0.4c0-0.2,0-0.3,0.1-0.5c0.1-0.1,0.1,0.2,0.2,0.4
					c0.1-0.2,0.1-0.4,0.1-0.5c0-0.1,0-0.2,0.2-0.3C73.6,30.3,73.7,30.6,73.9,30.9z M74.2,36.8c0,0,0.1,0,0.1,0.1
					c0.1,0.1,0.5,0.2,0.2,0c-0.2-0.1-0.4-0.4-0.4-0.4C74,36.4,74.2,36.7,74.2,36.8z"/>
				<path class="st0" d="M87.2,29.4c0.4,0.1,0.5,0.4,0.6,0.6c0,0.5,0.1,2-0.3,1.6c-0.2-0.2-0.1,0.1-0.2,0.2C87.1,32,87.1,32,87,32.1
					c-0.5-0.3-0.4-0.7-0.6-1c-0.1-0.3-0.1-0.6-0.2-0.9c-0.1-0.4-0.9-0.7-1.5-0.5c0.1,0,0.2,0,0.3,0c0,0,0,0,0,0.1
					c-0.3,0.1-0.4,0.3-0.5,0.5c-0.1,0.2-0.3,0.5-0.4,0.7c-0.1,0.4-0.3,0.7-0.4,1c-0.1,0.2-0.1,0.4-0.2,0.6c-0.1,0.5,0,1.2,0,1.5
					c0,0.1-0.1,0.1,0,0.2c0.1,0.2,0,0.4,0,0.5c0,0.1,0.2,0.3,0.2,0.4c0.1,0.3,0.1,0.6,0.4,0.9c0.2,0.2,0.5,0.3,0.9,0.3l0.7,0
					c0.1,0,0.2,0,0.3-0.1c0.5-0.2,0.6-0.2,1-0.5c0.1,0,0.2-0.1,0.5-0.2c0.2-0.1,0.4-0.2,0.6-0.4c0.1-0.1,0.3-0.1,0.4-0.2
					c0.1,0.1-0.2,0.3-0.1,0.3c0,0,0,0,0,0.1c-0.1,0.1-0.3,0.1-0.4,0.2C88,36,88,36,87.9,36.1c-0.1,0.1-0.2,0.1-0.4,0.2
					c-0.1,0-0.1,0.1-0.2,0.1c-0.4,0.3-0.5,0.4-0.9,0.5c-0.3,0.1-0.6,0.2-0.9,0.4c-0.3,0.1-0.7,0.2-1,0.3c-0.3,0.1-0.4,0-0.7,0
					c-0.1,0-0.1,0-0.2,0c-0.1,0-0.2,0-0.2,0c0,0-0.1,0-0.1,0c-0.3-0.1-0.6-0.1-0.9-0.2c-0.2-0.1-0.7-0.4-0.8-0.6
					c-0.2-0.4-0.4-0.6-0.5-1c0-0.3,0-0.5-0.1-0.7c-0.1-0.1,0-0.2-0.1-0.4c-0.1-0.1-0.1-0.2,0-0.3C81,34.3,81,34.1,81,34
					c0-0.5,0-1.1,0.1-1.6c0.1-0.3,0-0.5,0.1-0.8c0.2-0.7,0.7-1.4,1.3-2c0,0,0,0,0.1,0c0,0,0.1,0,0.1,0c0.1,0.1,0.2,0.1,0.3,0
					c0.2-0.2,0.4-0.3,0.6-0.4c0.1,0,0.1-0.1,0.2,0c0.4,0.1,0.7,0,1.1,0C85.7,29.1,86.4,29.2,87.2,29.4z M81.6,32.3
					c-0.1,0,0,0.4,0,0.4c-0.1,0.1,0.3,0.3,0.2,0.1c-0.1-0.2,0.3-1.3,0-1.3C81.8,31.6,81.6,32.3,81.6,32.3z"/>
				<path class="st0" d="M90.4,29.9c0.1,0.2,0.2,0.3,0.3,0.5c0,0.1,0,0.3,0.2,0.4c0.1-0.2-0.1-0.4,0-0.5c0.1,0,0.2,0,0.2,0.1
					c0,0.2,0.2,0.4,0.2,0.5c0.2,0.5,0.2,1,0.2,1.8c0,0.5-0.1,1-0.1,1.5c0,0.4-0.1,0.9,0,1.3c0.1,0.2,0.1,0.5,0.1,0.7
					c0,0.2,0,0.5,0.1,0.7c0.2,0,0.3,0,0.5-0.1c0.1,0,0.1,0,0.5-0.1c0.2-0.1,0.4-0.1,0.5-0.2c0.3-0.2,0.7-0.3,1.1-0.4
					c0.1,0,0.2-0.1,0.4,0c-0.3,0.3-0.7,0.5-1.2,0.7c-0.5,0.2-0.6,0.3-1,0.5c-0.5,0.2-0.4,0.1-1,0.2c-0.9,0.1-1.6-0.2-1.8-0.7
					c-0.1-0.5-0.2-1-0.2-1.5c0-0.6,0.2-1.2,0.1-1.7c-0.1-0.8,0-1.8,0-2.5c0-0.4,0-0.7-0.1-1c0-0.1-0.1-0.1,0-0.2
					c0.2,0,0.3-0.2,0.5-0.1C90.1,29.7,90.2,29.8,90.4,29.9z M91,37c0.1,0.1,0.1,0.1,0.2,0c0-0.1-0.1-0.3-0.1-0.4
					C90.9,36.7,90.9,36.9,91,37z"/>
				<path class="st0" d="M95.4,32.5c0,0.1-0.3,0.1-0.4,0.1c0.1,0,0.2,0,0.2,0c0.4-0.1,0.7-0.2,1.2-0.1c0.1,0,0.2,0,0.3,0.1
					c0.2,0.1,0.2,0.1,0.4,0.1l0.2,0.1c0.2,0.1,0.6,0.6,0.6,0.9c0,0.3,0,0.5-0.1,0.7c-0.1,0.1-0.1,0.2-0.3,0.3c-0.1,0-0.1,0-0.1,0.1
					c-0.3,0.1-0.4,0.2-0.8,0.3c-0.2,0-0.4,0.1-0.5,0.2c-0.2,0.1-0.4,0.2-0.7,0.3c0.1,0.3,0.2,0.5,0.4,0.7c0.1,0.1,0.3,0.1,0.4,0.3
					c0.2,0.2,0.4,0.2,0.7,0.1c0.9-0.2,1.2-0.2,2-0.5C99,36.1,99,36,99.4,36c0.2,0,0.3-0.1,0.4-0.2c0.1,0,0.1-0.1,0.2,0
					c0.1,0.2-0.2,0.3-0.4,0.4c-0.1,0-0.2,0.1-0.2,0.1c-0.2,0.1-0.9,0.4-0.9,0.4c-0.4,0.1-0.2,0.1-0.6,0.2c-0.1,0-0.4,0.1-0.4,0.2
					c-0.3,0.1-0.6,0.1-0.7,0.2c-0.3,0.2-0.9,0.2-1.3,0.2c-0.2,0-0.6-0.1-0.8-0.2c-0.4-0.3-0.7-0.5-0.9-0.8c0,0,0-0.1-0.1-0.1
					c-0.1-0.2-0.1-0.3-0.2-0.4c0-0.1,0-0.4,0-0.6c0-0.4,0-0.9,0.2-1.2c0.1-0.4,0.3-0.8,0.7-1.2c0.2-0.2,0.5-0.3,0.9-0.4
					C95.2,32.5,95.4,32.5,95.4,32.5z M94.9,36.5c0.2,0.2,0.4,0.4,0.7,0.5c0,0,0,0,0.1,0c-0.1-0.1-0.3-0.2-0.4-0.3
					c-0.2-0.1-0.2-0.3-0.3-0.4C94.8,36.3,94.8,36.4,94.9,36.5z M95.5,33c-0.2,0.2-0.3,0.5-0.3,0.7c-0.1,0.4,0,0.8,0,1.2
					c0,0.1,0,0.2,0,0.3c0.1,0,0.3-0.1,0.4-0.2c0.3-0.1,0.5-0.2,0.7-0.3c0.3-0.1,0.3-0.3,0.4-0.6c0,0,0-0.1,0-0.2
					c0.1-0.2,0-0.4-0.1-0.5c-0.1-0.2-0.1-0.3-0.2-0.4c0-0.1-0.1-0.2-0.2-0.2C95.8,32.8,95.7,32.8,95.5,33z M96,37
					c-0.1-0.1-0.2-0.1-0.3-0.2C95.8,36.9,95.8,37,96,37z"/>
				<path class="st0" d="M103.6,32.8c0.3,0.2,0.4,0.4,0.3,0.7v0.1c0.1,0.3,0.1,0.5,0,0.8c0,0.1,0,0.2,0,0.3c0,0.4,0.1,0.8,0,1.2
					c0,0.1-0.1,0.4-0.1,0.5c0,0.1,0,0.3,0.1,0.4c0.3,0,0.4,0,0.6-0.1c0.6-0.1,1.3-0.6,1.6-0.8c0,0.1-0.1,0.3-0.3,0.5
					c-0.2,0.1-0.7,0.4-0.9,0.5c-0.3,0.1-0.6,0.3-0.9,0.4c-0.3,0.1-0.7,0.2-1.2,0.2c-0.2,0-0.3-0.1-0.4-0.2c-0.1-0.1-0.2-0.2-0.3-0.2
					c-0.1,0-0.1,0-0.2,0.1c0,0-0.1,0.1-0.1,0.1c-0.2,0-0.3,0.1-0.5,0.2c-0.3,0.1-0.4,0-0.6,0c-0.1,0-0.2,0,0,0
					c0.4,0-0.1,0.1-0.6,0.1c-0.2,0-0.8-0.1-0.9-0.2c-0.4-0.3-0.5-0.4-0.5-0.7l0-0.4c0-0.4,0.2-0.7,0.5-1c0.4-0.3,0.8-0.5,1.4-0.6
					c0.3-0.1,0.6-0.1,0.9-0.2c0.2-0.1,0.4,0,0.6,0c0.1-0.3,0-0.9,0-1.2c0-0.2-0.1-0.2-0.4-0.2c-0.5,0.1-0.9,0.2-1.5,0.2
					c-0.1,0-0.1,0-0.2,0c-0.4,0.2-0.6-0.1-0.9-0.1c0-0.1,0-0.1,0.1-0.1c0.5-0.1,0.9-0.2,1.2-0.2c0.4,0,0.7-0.1,1.1-0.2
					c0.2,0,0.2-0.1,0.4-0.1c0.2,0,0.4,0,0.6,0.1c0.2,0.1,0.3,0.1,0.6,0.1c0.1-0.1,0-0.1-0.1-0.1c-0.1,0-0.2-0.1-0.1-0.1
					C103.1,32.5,103.4,32.6,103.6,32.8z M99.2,36.8c0.1,0,0.2,0.1,0.3,0.2c0.1,0,0.2,0.2,0.4,0.1c-0.2-0.1-0.4-0.3-0.5-0.4
					c0,0-0.2-0.2-0.2,0C99.2,36.7,99.1,36.8,99.2,36.8z M101.8,34.7c-0.1,0.1-0.1,0.1-0.2,0.1c-0.1,0-0.1,0-0.2,0
					c-0.2,0.1-0.2,0.1-0.4,0.2c-0.2,0.1-0.3,0.2-0.4,0.3c-0.3,0.5-0.2,1.1,0,1.2c0.2,0.1,0.3,0.2,0.5,0.2c0.2,0,0.6-0.2,0.7-0.2
					c0.1,0,0.1-0.1,0.1-0.2c0-0.1,0-0.1,0-0.2c0-0.2-0.1-0.4,0-0.7c0-0.2,0-0.3,0-0.5c0.1-0.1,0-0.2,0-0.4
					C102,34.6,101.8,34.7,101.8,34.7z"/>
				<path class="st0" d="M110.8,32.8L110.8,32.8c0.2,0.3,0.4,0.5,0.4,0.7c0,0.5,0,1.1-0.1,1.6c0,0.3,0,0.5,0,0.8
					c0,0.2,0.1,0.4,0.2,0.6c0,0.1,0.6,0.2,0.7,0.2c0.6-0.3,1.1-0.5,1.7-0.7c0.1,0,0.1,0,0.2,0c-0.1,0.1-0.2,0.4-0.4,0.5
					c-0.3,0.1-0.6,0.2-0.8,0.4c-0.1,0.1-0.3,0.2-0.5,0.3c-0.2,0.1-0.3,0.1-0.6,0.2c-0.1,0.1-0.2,0.1-0.5,0.1c-0.5,0-0.9-0.1-1.2-0.4
					c-0.3-0.3-0.4-0.6-0.4-1c0-0.4,0-0.7,0-1.1c0-0.6,0-1.1,0.2-1.7c0.1-0.2,0-0.2,0-0.4c0-0.2-0.2-0.2-0.5-0.1
					c-0.6,0.4-1.1,0.7-1.4,1.3c-0.2,0.3-0.2,0.7-0.1,1c0,0.1,0,0.3,0,0.4c-0.1,0.5-0.1,1-0.1,1.5c0,0.1-0.1,0.2-0.3,0.2
					c-0.1,0-0.1,0.1-0.2,0.1c-0.2,0.1-0.4,0.1-0.6-0.1c-0.1-0.1-0.1-0.1-0.2-0.2c-0.1,0,0,0.1-0.1,0.1c-0.2,0-0.2-0.1-0.2-0.2
					c-0.1-0.3-0.3-0.5-0.2-0.8c0-0.5,0-1,0-1.5v-2c0-0.2,0-0.2,0.2-0.1c0.1,0,0.2,0,0.3,0c0.2,0,0.3,0,0.4,0
					c0.2,0.1,0.3,0.1,0.5,0.2c0.2,0.1,0.2,0.2,0.2,0.4c0,0.2,0.1,0.4,0.1,0.7c0.1-0.1,0.2-0.1,0.2-0.2c0.2-0.3,0.5-0.6,0.8-0.8
					c0.4-0.3,0.8-0.4,1.3-0.3C110.3,32.5,110.5,32.7,110.8,32.8z"/>
				<path class="st0" d="M114.8,32.5c0,0.1-0.3,0.1-0.4,0.1c0.1,0,0.2,0,0.2,0c0.4-0.1,0.7-0.2,1.2-0.1c0.1,0,0.2,0,0.3,0.1
					c0.2,0.1,0.2,0.1,0.4,0.1l0.2,0.1c0.2,0.1,0.6,0.6,0.6,0.9c0,0.3,0,0.5-0.1,0.7c-0.1,0.1-0.1,0.2-0.3,0.3c-0.1,0-0.1,0-0.1,0.1
					c-0.3,0.1-0.4,0.2-0.8,0.3c-0.2,0-0.4,0.1-0.5,0.2c-0.2,0.1-0.4,0.2-0.7,0.3c0.1,0.3,0.2,0.5,0.4,0.7c0.1,0.1,0.3,0.1,0.4,0.3
					c0.2,0.2,0.4,0.2,0.7,0.1c0.9-0.2,1.2-0.2,2-0.5c0.3-0.1,0.3-0.2,0.6-0.2c0.2,0,0.3-0.1,0.4-0.2c0.1,0,0.1-0.1,0.2,0
					c0.1,0.2-0.2,0.3-0.4,0.4c-0.1,0-0.2,0.1-0.2,0.1c-0.2,0.1-0.9,0.4-0.9,0.4c-0.4,0.1-0.2,0.1-0.6,0.2c-0.1,0-0.4,0.1-0.4,0.2
					c-0.3,0.1-0.6,0.1-0.7,0.2c-0.3,0.2-0.9,0.2-1.3,0.2c-0.2,0-0.6-0.1-0.8-0.2c-0.4-0.3-0.7-0.5-0.9-0.8c0,0,0-0.1-0.1-0.1
					c-0.1-0.2-0.1-0.3-0.2-0.4c0-0.1,0-0.4,0-0.6c0-0.4,0-0.9,0.2-1.2c0.1-0.4,0.3-0.8,0.7-1.2c0.2-0.2,0.5-0.3,0.9-0.4
					C114.6,32.5,114.8,32.5,114.8,32.5z M114.3,36.5c0.2,0.2,0.4,0.4,0.7,0.5c0,0,0,0,0.1,0c-0.1-0.1-0.3-0.2-0.4-0.3
					c-0.2-0.1-0.2-0.3-0.3-0.4C114.2,36.3,114.2,36.4,114.3,36.5z M114.9,33c-0.2,0.2-0.3,0.5-0.3,0.7c-0.1,0.4,0,0.8,0,1.2
					c0,0.1,0,0.2,0,0.3c0.1,0,0.3-0.1,0.4-0.2c0.3-0.1,0.5-0.2,0.7-0.3c0.3-0.1,0.3-0.3,0.4-0.6c0,0,0-0.1,0-0.2
					c0.1-0.2,0-0.4-0.1-0.5c-0.1-0.2-0.1-0.3-0.2-0.4c0-0.1-0.1-0.2-0.2-0.2C115.2,32.8,115.2,32.8,114.9,33z M115.4,37
					c-0.1-0.1-0.2-0.1-0.3-0.2C115.2,36.9,115.3,37,115.4,37z"/>
				<path class="st0" d="M120.4,33C120.4,33,120.4,33.1,120.4,33c0,0.1,0.1,0.1,0.1,0.1c0.2-0.1,0.4-0.2,0.7-0.4
					c0.4-0.2,0.8-0.3,1.4-0.2c0.3,0,0.6,0.1,0.8,0.3c-0.1,0.1-0.2,0.1-0.4,0.1c-0.1,0-0.2,0-0.3,0c-0.1,0.1-0.3,0-0.4,0.2l-0.1,0.1
					c-0.5,0.1-0.9,0.3-1.1,0.6c-0.1,0.1-0.1,0.3-0.2,0.4c-0.1,0.1-0.1,0.2-0.1,0.3c0,0.2,0,0.4,0,0.6c0,0.5,0.1,0.9,0.1,1.3
					c0,0.2,0,0.4,0,0.6c0,0.1-0.2,0.5-0.3,0.5c-0.2-0.2-0.4-0.2-0.7,0c-0.1,0.1-0.2,0-0.3,0c-0.1,0,0,0.1,0,0.1h-0.1
					c-0.4-0.2-0.5-0.5-0.5-0.8c0-0.5,0-1-0.1-1.4c0-0.2,0-0.4,0-0.6c0.1-0.3,0.1-0.6,0.1-0.8c0-0.1,0-0.2,0-0.4c0-0.2,0-0.4-0.1-0.7
					c0,0,0-0.1,0.1-0.1c0.1,0,0.1,0,0.1,0.1c0.2-0.1,0.1-0.2,0.1-0.2c0.1-0.1,0.3-0.1,0.4-0.1c0,0,0.1,0,0.2,0
					C120,32.6,120.3,32.7,120.4,33z M123.1,33.2C123.1,33.3,123.1,33.3,123.1,33.2c-0.3-0.1-0.6,0-0.8,0c-0.1,0.1-0.3,0.1-0.5,0.1
					c0.1-0.1,0.2-0.1,0.2-0.1l0.1-0.1c0.1,0,0.2-0.1,0.3-0.1C122.8,33,122.9,33.1,123.1,33.2z"/>
				<path class="st0" d="M127,32.5c0.1,0-0.5,0.2-0.1,0.2c0.1,0-0.1,0.1-0.3,0.2c0,0-0.1,0-0.2,0.1c-0.2,0-0.4,0.1-0.5,0.2
					c-0.1,0.1-0.5,0.2-0.4,0.4c0,0.1,0,0.1,0,0.2c0,0.1,0.6,0.4,0.7,0.5c0.4,0.2,0.8,0.5,1,0.7c0.2,0.3,0.5,1,0.4,1.3
					c-0.1,0.2-0.3,0.4-0.5,0.7c-0.3,0.3-0.9,0.4-1.3,0.5c-0.1,0-0.2,0-0.2,0c-0.2,0-0.6,0-0.9,0c-0.2,0-0.7-0.1-0.5-0.1
					c0.1,0,0.2,0-0.3-0.1c-0.5-0.2-0.3-0.2-0.5-0.3c-0.2-0.2,0.1-0.1,0.1-0.1c0-0.1-0.3-0.2-0.1-0.2c0.1,0,0.1,0,0.1,0
					c0.1,0,0.4,0.2,0.4,0.1c0-0.1-0.3-0.2-0.5-0.3c-0.1-0.2,0.2,0,0.4,0.1c0.2,0,0.3,0.2,0.7,0.2c0.2,0.1,0.6,0.1,0.7,0
					c0.2-0.1,0.4-0.2,0.4-0.4c0.1-0.3,0-0.7-0.3-1c-0.3-0.3-0.7-0.6-1.1-0.8c-0.4-0.3-0.5-0.7-0.3-1c0.1-0.3,0.3-0.5,0.8-0.6
					c0.1,0,0.1,0,0.2-0.1c0.3-0.1,0.6-0.1,0.9-0.2c0.2,0,0.5-0.1,0.7-0.1C126.5,32.4,126.7,32.5,127,32.5z M124.6,34.4
					c-0.1,0,0.3,0.3,0.3,0.4l0.3,0.3c0.1,0.1,0.2,0.1,0.3,0.1c0,0,0-0.1,0-0.1c0,0-0.1,0-0.2-0.1l-0.4-0.4L124.6,34.4z"/>
			</g>
			<g>
				<g>
					<path class="st0" d="M58,38.2c0.1,0,0.1,0,0.1,0.1c0,0,0,0.1,0,0.1c-0.1,0-0.1,0.1-0.2,0.1c-0.1,0,0,0,0,0c-0.1,0-0.1,0-0.2,0
						c-0.1,0-0.3,0-0.4,0c-0.1,0-0.2,0-0.3,0c-0.1,0-0.1,0-0.2,0.1c-0.1,0-0.1,0-0.2,0c0.1,0.1,0,0.2,0.2,0.2c0,0,0,0,0,0.1
						c0,0.1,0,0.2,0,0.4c0,0.2,0,0.3,0,0.5c0,0.2,0,0.5,0,0.7c0,0.1,0,0.2,0,0.3c0,0.2,0,0.3,0,0.5c0,0.1,0,0.1,0,0.2
						c0,0.1,0,0.3,0,0.4c0,0.1-0.1,0.2-0.1,0.3c0,0,0,0,0,0c-0.1,0-0.2,0-0.2,0c0,0-0.1,0-0.1,0c-0.1,0-0.1,0-0.2-0.1
						c0,0-0.1,0-0.1,0c-0.1,0-0.3,0-0.3-0.1c0-0.1,0-0.3,0-0.4c0-0.1,0-0.2,0-0.4c0-0.1,0-0.2,0-0.3c0-0.1,0-0.1,0-0.2
						c0-0.1,0-0.2,0-0.3c0-0.2,0-0.4,0-0.6c0-0.2,0-0.4,0-0.6c0-0.1,0-0.2,0-0.3c0-0.1,0-0.1,0-0.2c0,0,0-0.1,0-0.1c0,0-0.1,0-0.1,0
						c-0.2,0-0.3,0-0.5,0c-0.2,0-0.3,0-0.5,0c-0.1,0-0.1,0-0.1,0c0,0,0.1,0,0.1,0c0.1,0,0.1,0,0.1-0.1c0,0,0,0,0.1-0.1
						c0.2,0,0.3,0,0.5,0c0.3,0,0.6-0.1,0.9-0.1c0.4,0,0.7-0.1,1.1-0.1C57.4,38.3,57.7,38.3,58,38.2L58,38.2z M55.9,38.6
						c0,0,0,0.2,0,0.2l0.1,0C56,38.7,56,38.7,55.9,38.6C55.9,38.6,55.9,38.6,55.9,38.6z"/>
					<path class="st0" d="M58.9,38.7C58.9,38.7,58.9,38.7,58.9,38.7c0.1,0,0.1,0,0.1,0c0,0,0,0.1,0.1,0.1c0,0,0,0,0,0
						c0,0.1,0.1,0.2,0.1,0.3c0,0.1,0,0.1,0,0.2c0.1,0.2,0,0.3,0,0.5c0,0.1,0,0.2,0,0.3c0.1-0.1,0.2-0.1,0.3-0.2
						c0.1-0.1,0.2-0.1,0.3-0.2c0.2-0.1,0.4-0.1,0.6,0c0.2,0,0.3,0.1,0.4,0.2c0,0,0,0,0,0.1c0,0.1,0,0.1,0,0.2c0,0.1,0,0.1,0,0.2
						c0,0.1,0,0.2,0,0.4c0,0.2,0,0.3,0.1,0.5c0,0.1,0,0.2,0,0.2c0,0.1,0,0.2,0,0.2c0,0,0,0.1,0.1,0.1c0,0,0.1,0,0.1,0
						c0.1,0,0,0,0.2-0.1c0.2-0.1,0.3-0.1,0.5-0.2c0.1-0.1,0.2-0.1,0.4-0.2c0,0,0,0.1,0,0.1c-0.1,0.1-0.2,0.1-0.3,0.2
						c0,0-0.1,0.1-0.1,0.1c-0.1,0-0.2,0.1-0.2,0.1c-0.1,0-0.1,0.1-0.2,0.1C61.2,42,61.1,42,61,42.1c-0.2,0.1-0.1,0-0.3,0.1
						c-0.1,0-0.1,0-0.2,0l-0.1,0c-0.1,0-0.1,0.1-0.1,0c-0.1,0-0.2-0.1-0.2-0.1c0,0,0,0,0,0c-0.1-0.1-0.1-0.3-0.1-0.4
						c0-0.1,0-0.2,0.1-0.3c0-0.1,0-0.2,0-0.2c-0.1-0.2,0-0.4,0-0.5c0-0.2,0.1-0.3,0.1-0.5c0,0,0-0.1-0.1-0.1c-0.1,0-0.1,0-0.2,0
						c0,0-0.1,0-0.1,0l-0.2,0.1c0,0,0,0-0.1,0c-0.1,0-0.2,0.1-0.2,0.2c0,0,0,0-0.1,0c-0.1,0.1-0.1,0.2-0.1,0.4c0,0.1,0,0.3,0.1,0.4
						c0,0.2,0,0.3,0,0.5c0,0.1,0,0.1,0,0.2c0,0.1,0,0.1,0,0.2c0,0,0,0.1-0.1,0.1c-0.1,0,0,0.1-0.1,0.1c-0.1,0-0.1,0-0.2,0
						c0,0-0.1,0-0.1,0c-0.1-0.1-0.2-0.1-0.2-0.3c0,0,0-0.1,0-0.1c-0.1-0.1-0.1-0.1-0.1-0.2c0-0.2,0-0.5,0-0.7c0-0.2,0-0.4,0-0.5
						c0-0.2,0-0.4,0-0.7c0-0.3,0-0.5,0-0.8c0-0.1,0-0.2,0.1-0.3C58.6,38.7,58.8,38.7,58.9,38.7z"/>
					<path class="st0" d="M63,39.8c0,0-0.2,0-0.2,0.1C62.8,39.9,62.9,39.9,63,39.8c0.1,0,0.3,0,0.5,0c0,0,0.1,0,0.1,0
						c0.1,0,0.1,0,0.2,0.1l0.1,0c0.1,0,0.3,0.3,0.3,0.4c0,0.1,0,0.2-0.1,0.3c0,0.1-0.1,0.1-0.2,0.1c0,0,0,0,0,0
						c-0.1,0-0.2,0.1-0.4,0.2c-0.1,0-0.2,0.1-0.3,0.1c-0.1,0-0.2,0.1-0.3,0.1c0.1,0.1,0.1,0.2,0.2,0.3c0.1,0.1,0.1,0.1,0.2,0.1
						c0.1,0.1,0.2,0.1,0.3,0.1c0.4-0.1,0.6-0.1,0.9-0.3c0.1-0.1,0.1-0.1,0.3-0.1c0.1,0,0.1,0,0.2-0.1c0,0,0.1,0,0.1,0
						c0,0.1-0.1,0.1-0.2,0.2c0,0-0.1,0-0.1,0.1c-0.1,0.1-0.4,0.2-0.4,0.2c-0.2,0.1-0.1,0-0.3,0.1c0,0-0.2,0.1-0.2,0.1
						c-0.1,0.1-0.3,0.1-0.3,0.1c-0.2,0.1-0.4,0.1-0.6,0.1c-0.1,0-0.3,0-0.4-0.1c-0.2-0.1-0.4-0.2-0.4-0.4c0,0,0,0,0-0.1
						c0-0.1-0.1-0.1-0.1-0.2c0,0,0-0.2,0-0.3c0-0.2,0-0.4,0.1-0.6c0.1-0.2,0.1-0.4,0.3-0.6c0.1-0.1,0.2-0.1,0.4-0.2
						C62.9,39.8,62.9,39.8,63,39.8z M62.7,41.8c0.1,0.1,0.2,0.2,0.3,0.2c0,0,0,0,0,0c-0.1-0.1-0.1-0.1-0.2-0.2
						c-0.1-0.1-0.1-0.1-0.2-0.2C62.6,41.7,62.7,41.7,62.7,41.8z M63,40.1c-0.1,0.1-0.1,0.2-0.1,0.3c0,0.2,0,0.4,0,0.6
						c0,0,0,0.1,0,0.1c0.1,0,0.1-0.1,0.2-0.1c0.1-0.1,0.2-0.1,0.3-0.2c0.1-0.1,0.1-0.1,0.2-0.3c0,0,0-0.1,0-0.1c0-0.1,0-0.2,0-0.2
						c0-0.1-0.1-0.1-0.1-0.2c0,0-0.1-0.1-0.1-0.1C63.1,40,63.1,40,63,40.1z M63.2,42c0,0-0.1-0.1-0.1-0.1C63.1,42,63.2,42,63.2,42z"
						/>
					<path class="st0" d="M68.7,38.3c0.3,0,0.6,0,0.9,0.1l0.2,0.1c0.3,0.1,0.4,0.2,0.4,0.4c0,0.1-0.1,0.2-0.2,0.3
						c-0.2,0.1-0.3,0.2-0.5,0.3c-0.1,0-0.2,0.1-0.3,0.1c0,0-0.1,0-0.1,0.1c0,0,0,0-0.1,0c-0.1,0-0.2,0.1-0.3,0.1
						c-0.1,0,0,0.1-0.1,0.1c0.3,0,0.5,0,0.8,0c0.2,0,0.4,0,0.6,0.1c0.3,0.1,0.5,0.2,0.7,0.3c0.1,0.1,0.1,0.1,0.1,0.2
						c0,0.1-0.1,0.2-0.2,0.3c-0.1,0.2-0.4,0.3-0.6,0.5c-0.2,0.1-0.3,0.3-0.5,0.4c-0.1,0-0.2,0.1-0.2,0.1c-0.3,0.1-0.5,0.3-0.8,0.4
						c-0.1,0.1-0.3,0.1-0.4,0.2c0,0,0-0.1,0-0.1c0,0,0,0-0.1-0.1c-0.1,0-0.2-0.1-0.2-0.1c0,0,0,0,0,0c-0.1,0-0.1,0.2-0.3,0.2l0-0.2
						l-0.1-0.5c0,0,0,0,0-0.1c0.1-0.2,0.1-0.4,0.1-0.6c0-0.2,0-0.5,0-0.7l0-0.6c0-0.1,0-0.1,0-0.2c0-0.1,0-0.1,0-0.2
						c0-0.1,0-0.3,0-0.4c0-0.1,0-0.1-0.1-0.1c-0.1,0-0.2,0-0.2,0c-0.1,0-0.1,0-0.1,0c0,0,0-0.1,0-0.1c0,0,0-0.1,0.1-0.1
						c0.1,0,0.2,0,0.2,0L68.7,38.3z M68.5,38.7c0,0.3,0,0.5,0,0.8c0,0,0,0.1,0,0.2c0.2,0,0.3-0.1,0.4-0.2c0,0,0,0,0.1,0
						c0.3-0.2,0.5-0.4,0.7-0.6c0.1-0.1,0-0.1-0.1-0.1c-0.2,0-0.3,0-0.5-0.1C68.9,38.5,68.7,38.6,68.5,38.7
						C68.5,38.6,68.5,38.6,68.5,38.7z M68.4,40.2c0.1,0,0.1,0,0.1,0C68.5,40.2,68.5,40.2,68.4,40.2c0,0.2,0,0.3,0,0.5
						c0,0.1,0,0.3,0,0.4c0,0.1,0,0.2,0,0.4c0,0.1,0,0.2,0,0.4c0.2-0.1,0.3-0.2,0.5-0.2c0.1,0,0.1,0,0.1-0.1c0,0,0.1-0.1,0.1-0.1
						c0.2-0.2,0.3-0.3,0.5-0.5c0.1-0.1,0.1-0.2,0.2-0.3c0.1-0.1,0.1-0.1-0.1-0.2c-0.1,0-0.1-0.1-0.2-0.1c-0.2,0-0.4,0-0.6,0
						c-0.1,0-0.1,0-0.2,0c0.2,0,0.4,0,0.7,0c-0.1-0.1-0.1-0.1-0.2,0c-0.1,0-0.3,0-0.4,0C68.7,40.1,68.6,40.1,68.4,40.2z"/>
					<path class="st0" d="M72.5,39.8c0,0-0.2,0-0.2,0.1C72.4,39.9,72.4,39.9,72.5,39.8c0.1,0,0.3,0,0.5,0c0,0,0.1,0,0.1,0
						c0.1,0,0.1,0,0.2,0.1l0.1,0c0.1,0,0.3,0.3,0.3,0.4c0,0.1,0,0.2-0.1,0.3c0,0.1-0.1,0.1-0.2,0.1c0,0,0,0,0,0
						c-0.1,0-0.2,0.1-0.4,0.2c-0.1,0-0.2,0.1-0.3,0.1c-0.1,0-0.2,0.1-0.3,0.1c0.1,0.1,0.1,0.2,0.2,0.3c0.1,0.1,0.1,0.1,0.2,0.1
						c0.1,0.1,0.2,0.1,0.3,0.1c0.4-0.1,0.6-0.1,0.9-0.3c0.1-0.1,0.1-0.1,0.3-0.1c0.1,0,0.1,0,0.2-0.1c0,0,0.1,0,0.1,0
						c0,0.1-0.1,0.1-0.2,0.2c0,0-0.1,0-0.1,0.1c-0.1,0.1-0.4,0.2-0.4,0.2c-0.2,0.1-0.1,0-0.3,0.1c0,0-0.2,0.1-0.2,0.1
						c-0.1,0.1-0.3,0.1-0.3,0.1c-0.2,0.1-0.4,0.1-0.6,0.1c-0.1,0-0.3,0-0.4-0.1c-0.2-0.1-0.4-0.2-0.4-0.4c0,0,0,0,0-0.1
						c0-0.1-0.1-0.1-0.1-0.2c0,0,0-0.2,0-0.3c0-0.2,0-0.4,0.1-0.6c0.1-0.2,0.1-0.4,0.3-0.6c0.1-0.1,0.2-0.1,0.4-0.2
						C72.4,39.8,72.5,39.8,72.5,39.8z M72.2,41.8c0.1,0.1,0.2,0.2,0.3,0.2c0,0,0,0,0,0c-0.1-0.1-0.1-0.1-0.2-0.2
						c-0.1-0.1-0.1-0.1-0.2-0.2C72.2,41.7,72.2,41.7,72.2,41.8z M72.5,40.1c-0.1,0.1-0.1,0.2-0.1,0.3c0,0.2,0,0.4,0,0.6
						c0,0,0,0.1,0,0.1c0.1,0,0.1-0.1,0.2-0.1c0.1-0.1,0.2-0.1,0.3-0.2c0.1-0.1,0.1-0.1,0.2-0.3c0,0,0-0.1,0-0.1c0-0.1,0-0.2,0-0.2
						c0-0.1-0.1-0.1-0.1-0.2c0,0-0.1-0.1-0.1-0.1C72.7,40,72.6,40,72.5,40.1z M72.8,42c0,0-0.1-0.1-0.1-0.1C72.7,42,72.7,42,72.8,42
						z"/>
					<path class="st0" d="M76.2,39.8C76.3,39.8,76,39.9,76.2,39.8c0,0.1-0.1,0.1-0.2,0.2c0,0-0.1,0-0.1,0c-0.1,0-0.2,0-0.2,0.1
						c-0.1,0.1-0.2,0.1-0.2,0.2c0,0,0,0.1,0,0.1c0,0.1,0.3,0.2,0.3,0.3c0.2,0.1,0.4,0.2,0.5,0.3c0.1,0.1,0.2,0.5,0.2,0.6
						c0,0.1-0.2,0.2-0.3,0.3c-0.1,0.2-0.4,0.2-0.6,0.3c0,0-0.1,0-0.1,0c-0.1,0-0.3,0-0.4,0c-0.1,0-0.3,0-0.3-0.1c0,0,0.1,0-0.2-0.1
						c-0.2-0.1-0.2-0.1-0.2-0.1c-0.1-0.1,0,0,0,0c0,0-0.1-0.1-0.1-0.1c0,0,0,0,0.1,0c0.1,0,0.2,0.1,0.2,0c0,0-0.2-0.1-0.2-0.2
						c0-0.1,0.1,0,0.2,0c0.1,0,0.2,0.1,0.3,0.1c0.1,0,0.3,0,0.4,0c0.1-0.1,0.2-0.1,0.2-0.2c0-0.1,0-0.3-0.2-0.5
						c-0.1-0.1-0.4-0.3-0.5-0.4c-0.2-0.1-0.2-0.3-0.1-0.5c0.1-0.1,0.1-0.2,0.4-0.3c0,0,0.1,0,0.1,0c0.1-0.1,0.3-0.1,0.4-0.1
						c0.1,0,0.2,0,0.4-0.1C76,39.8,76.1,39.8,76.2,39.8z M75.1,40.7c-0.1,0,0.1,0.1,0.2,0.2l0.2,0.2c0,0,0.1,0.1,0.1,0.1
						c0,0,0,0,0-0.1c0,0,0,0-0.1-0.1l-0.2-0.2L75.1,40.7z"/>
					<path class="st0" d="M78.1,39.1c0.1,0.1,0.1,0.2,0.1,0.4c0.2,0,0.2,0,0.3,0c0.1,0,0.4,0,0.2,0c0,0,0.3,0,0.4,0
						c0.1,0,0.4,0,0.2,0.1c-0.1,0,0.1,0,0.2,0.1c-0.1,0.1-0.4,0.1-0.6,0.1c-0.1,0-0.2,0-0.3,0c0,0-0.2,0-0.3,0c-0.1,0-0.1,0-0.1,0.1
						c0,0.2,0.1,0.4,0.1,0.6c0,0.2,0,0.3,0,0.5c0,0.2,0.1,0.4,0.1,0.6c0,0.1,0,0.2,0.1,0.3c0,0.1,0.1,0.1,0.2,0.2c0,0,0.1,0,0.1,0
						l0.2-0.1c0.2-0.1,0.4-0.2,0.5-0.2c0.1,0,0,0.1-0.1,0.2c-0.1,0-0.2,0.1-0.3,0.2c-0.1,0.1-0.1,0.1-0.3,0.1c0,0-0.1,0-0.1,0
						c-0.2,0.1-0.3,0.1-0.5,0.1c-0.1,0-0.1,0-0.2,0c0,0-0.1,0-0.1,0c0,0-0.1-0.1-0.1-0.1c0,0,0-0.1-0.1,0c0,0,0,0-0.1,0
						c-0.1-0.1-0.2-0.2-0.2-0.3c0-0.2,0-0.3,0-0.5c0-0.3,0-0.5,0-0.8c0-0.2,0-0.4,0.1-0.7c0,0,0-0.1,0-0.1c-0.1,0-0.4,0-0.4,0
						c0.1,0,0.2,0,0.3,0c-0.1,0-0.3,0-0.4,0c-0.2,0-0.2,0-0.2-0.1c0.2,0,0.5-0.1,0.6-0.1c0.1,0,0.1,0,0.1,0c0-0.1,0-0.1,0-0.2
						c0-0.1,0-0.2,0-0.3c0.1,0,0,0.1,0.1,0.2c0.1-0.1,0.1-0.2,0-0.3c0-0.1,0-0.1,0.1-0.2C78,38.8,78,38.9,78.1,39.1z M78.2,41.9
						C78.2,41.9,78.3,41.9,78.2,41.9c0.1,0.1,0.3,0.1,0.2,0c-0.1-0.1-0.2-0.2-0.2-0.2C78.2,41.7,78.2,41.9,78.2,41.9z"/>
					<path class="st0" d="M83,38.3C83,38.3,83,38.3,83,38.3c0,0.1,0,0.2,0,0.3c0,0.2,0,0.4,0,0.7c0,0.1,0,0.2,0,0.3
						c0,0,0,0.1,0.1,0.1c0.1-0.2,0-0.4,0-0.6c0.1-0.2,0-0.4,0-0.6c0.1,0.1,0.1,0.1,0.1,0.2c0,0.1,0,0.3,0,0.4c0,0.3,0,0.5,0,0.7
						c0,0.2,0,0.5,0.1,0.7c0.1,0.2,0.1,0.4,0.1,0.6c0,0.2,0,0.3-0.1,0.5c0,0,0,0.1,0,0.1c0,0.1,0,0.1-0.1,0.2
						c-0.1,0.1-0.1,0.1,0,0.2c0,0,0,0,0.1,0c0,0,0-0.1,0.1,0c0,0,0.1,0,0.1,0c0.1,0,0.2,0,0.3,0c0.2,0,0.3,0,0.5,0
						c0.1,0,0.2,0,0.3,0c0,0,0.1,0,0.1,0c0,0,0.1,0,0.1,0c0,0,0.1,0,0,0.1c0,0-0.1,0,0,0.1c0,0,0,0,0,0c-0.1,0-0.2,0.1-0.4,0.1
						c-0.2,0-0.4,0-0.6,0c-0.2,0-0.5,0-0.7,0c-0.2,0-0.5,0-0.7,0c-0.2,0-0.3,0-0.3-0.1c0.1,0,0.2,0,0.3-0.1c0,0-0.1,0-0.1-0.1
						c-0.1-0.1-0.1-0.1-0.1-0.2c0-0.3,0-0.7,0-1c0-0.3,0-0.5,0-0.8c0-0.3,0-0.6,0-0.9c0-0.2,0-0.5,0-0.7c0-0.1,0-0.1,0.1-0.1
						c0.1,0,0.2-0.1,0.4-0.1c0,0,0,0,0.1,0c0-0.1,0.1-0.1,0.2-0.1C82.9,38.2,82.9,38.3,83,38.3z M82.5,42C82.5,42,82.5,42,82.5,42
						C82.6,42,82.6,42,82.5,42C82.6,42,82.6,41.9,82.5,42C82.5,41.9,82.6,42,82.5,42z"/>
					<path class="st0" d="M86.3,39.8C86.3,39.8,86.3,39.9,86.3,39.8c0,0.1,0.1,0.1,0.1,0c0,0,0,0,0.1,0c0.2,0,0.4,0.1,0.6,0.1
						c0,0,0,0,0,0c0.1,0.1,0.2,0.2,0.3,0.2c0.1,0.1,0.1,0.2,0.2,0.3c0,0.1,0,0.1,0,0.2c0,0.1,0,0.2,0.1,0.3c0,0.1,0,0.2-0.1,0.3
						c0,0-0.1,0.1-0.1,0.1c0,0.1-0.1,0.2-0.2,0.3c-0.1,0.1-0.2,0.2-0.2,0.3c-0.1,0.1-0.2,0.1-0.3,0.1C86.8,42.1,87,42.1,87,42
						c-0.1,0-0.1,0-0.1,0c-0.1,0.1-0.3,0.1-0.4,0.1c-0.1,0-0.2,0-0.3,0c-0.2-0.1-0.3-0.1-0.5-0.2c-0.2-0.1-0.3-0.3-0.4-0.4
						c-0.1-0.2-0.1-0.4,0-0.6c0-0.2,0.1-0.4,0.2-0.6c0.1-0.2,0.3-0.4,0.6-0.4c0.1,0,0.1,0,0.2-0.1C86.2,39.8,86.3,39.8,86.3,39.8z
						 M86.3,40.1c0,0.1-0.1,0.1-0.1,0.2c0,0.1-0.1,0.1-0.1,0.2c0,0.1,0,0.2,0,0.3c0,0.1,0,0.2,0,0.2c0,0.1,0,0.1,0,0.2
						c0,0.2,0,0.4,0.2,0.6c0,0,0,0,0.1,0c0.1,0,0.1,0,0.2,0.1c0.1,0,0.1,0,0.1-0.1c0.2-0.1,0.2-0.3,0.3-0.4c0-0.2,0.1-0.4,0.1-0.7
						l0-0.5c0-0.1-0.1-0.2-0.2-0.3c-0.1,0-0.2-0.1-0.2,0C86.5,40.1,86.4,40.1,86.3,40.1z M86.8,42.2C86.8,42.2,86.8,42.2,86.8,42.2
						C86.8,42.2,86.8,42.2,86.8,42.2c-0.1,0-0.1,0-0.1,0C86.7,42.2,86.7,42.2,86.8,42.2z"/>
					<path class="st0" d="M90,39.9C90.1,39.9,90.1,39.9,90,39.9c0.1,0,0.2,0,0.2,0c0,0,0,0,0.1,0c0.2,0.1,0.3,0.2,0.3,0.4
						c0,0.1,0,0.2-0.1,0.3c-0.1,0.1-0.2,0.1-0.2,0.2c0,0,0,0-0.1,0c-0.1,0-0.1,0-0.2,0.1c-0.1-0.1-0.1-0.1-0.1-0.2
						c0-0.1,0-0.2,0-0.3c0-0.2-0.2-0.3-0.3-0.3c-0.1,0-0.1,0-0.2,0.1c0,0-0.1,0.1-0.1,0.1c0,0-0.1,0.1-0.1,0.2c0,0,0,0.1,0,0.1
						c-0.1,0.1-0.1,0.2-0.1,0.4c0,0.1,0,0.1,0.1,0.2c0,0,0,0,0,0c0,0.1,0.1,0.2,0.1,0.3c0,0.1,0,0.3,0.1,0.4c0,0,0.1,0.1,0.1,0.1
						c0.1,0,0.2,0.1,0.3,0c0.3,0,0.5-0.1,0.7-0.1c0.2-0.1,0.3-0.1,0.5-0.3c0.1,0,0.1-0.1,0.2-0.1c0.1,0,0.1,0,0.2,0
						c0,0.1-0.1,0.1-0.2,0.2l-0.1,0.1c-0.1,0-0.1,0.1-0.3,0.2c-0.1,0-0.2,0.1-0.3,0.1c0,0-0.2,0.1-0.2,0.1c-0.2,0-0.3,0-0.4,0.1
						c-0.2,0.1-0.4,0.1-0.6,0c-0.1,0-0.1,0-0.2,0c-0.1,0-0.1,0-0.2,0c-0.3-0.1-0.5-0.3-0.5-0.5c0-0.1,0-0.2,0-0.3
						c0-0.3,0-0.6,0.1-0.8c0-0.1,0.1-0.2,0.1-0.4c0.1-0.1,0.1-0.2,0.3-0.2c0.1,0,0.1,0,0.2-0.1c0.2-0.1,0.4-0.1,0.7,0
						C89.9,39.9,90,39.9,90,39.9z M89.1,40.5c0,0,0.1-0.2,0-0.3C89.1,40.3,89.1,40.5,89.1,40.5z"/>
					<path class="st0" d="M93.6,40c0.1,0.1,0.2,0.2,0.1,0.3v0c0.1,0.1,0,0.2,0,0.4c0,0,0,0.1,0,0.1c0,0.2,0,0.4,0,0.6
						c0,0.1,0,0.2-0.1,0.3c0,0.1,0,0.1,0,0.2c0.1,0,0.2,0,0.3-0.1c0.3-0.1,0.6-0.3,0.8-0.4c0,0.1,0,0.1-0.1,0.2
						c-0.1,0.1-0.3,0.2-0.4,0.2c-0.1,0.1-0.3,0.1-0.4,0.2c-0.2,0.1-0.3,0.1-0.6,0.1c-0.1,0-0.1,0-0.2-0.1C93,42,93,42,93,42
						c0,0-0.1,0-0.1,0c0,0,0,0-0.1,0c-0.1,0-0.1,0.1-0.3,0.1c-0.1,0-0.2,0-0.3,0c-0.1,0-0.1,0,0,0c0.2,0,0,0-0.3,0
						c-0.1,0-0.4,0-0.4-0.1c-0.2-0.2-0.2-0.2-0.2-0.3l0-0.2c0-0.2,0.1-0.4,0.3-0.5c0.2-0.1,0.4-0.2,0.7-0.3c0.1,0,0.3,0,0.4-0.1
						c0.1,0,0.2,0,0.3,0c0-0.1,0-0.4,0-0.6c0-0.1,0-0.1-0.2-0.1c-0.3,0.1-0.4,0.1-0.7,0.1c0,0-0.1,0-0.1,0c-0.2,0.1-0.3,0-0.4,0
						c0,0,0,0,0,0c0.2,0,0.4-0.1,0.6-0.1c0.2,0,0.3-0.1,0.5-0.1c0.1,0,0.1,0,0.2,0c0.1,0,0.2,0,0.3,0c0.1,0,0.2,0.1,0.3,0.1
						c0,0,0,0-0.1-0.1c-0.1,0-0.1,0,0,0C93.3,39.9,93.5,39.9,93.6,40z M91.5,41.9c0.1,0,0.1,0.1,0.1,0.1c0.1,0,0.1,0.1,0.2,0.1
						C91.7,42,91.6,42,91.5,41.9C91.6,41.9,91.5,41.8,91.5,41.9C91.5,41.9,91.5,41.9,91.5,41.9z M92.7,40.9
						C92.7,40.9,92.7,41,92.7,40.9c-0.1,0-0.1,0-0.2,0.1c-0.1,0-0.1,0.1-0.2,0.1c-0.1,0-0.2,0.1-0.2,0.1c-0.2,0.2-0.1,0.5,0,0.6
						c0.1,0.1,0.1,0.1,0.3,0.1c0.1,0,0.3-0.1,0.3-0.1c0.1,0,0.1,0,0.1-0.1c0,0,0-0.1,0-0.1c0-0.1-0.1-0.2,0-0.3c0-0.1,0-0.1,0-0.2
						c0-0.1,0-0.1,0-0.2C92.8,40.9,92.8,40.9,92.7,40.9z"/>
					<path class="st0" d="M95.5,38.6c0.1,0.1,0.1,0.2,0.1,0.2c0,0.1,0,0.1,0.1,0.2c0-0.1,0-0.2,0-0.2c0.1,0,0.1,0,0.1,0
						c0,0.1,0.1,0.2,0.1,0.3C96,39.3,96,39.6,96,40c0,0.2,0,0.5,0,0.7c0,0.2,0,0.4,0,0.6c0,0.1,0,0.2,0,0.3c0,0.1,0,0.2,0.1,0.3
						c0.1,0,0.1,0,0.2-0.1c0,0,0,0,0.2-0.1c0.1,0,0.2-0.1,0.2-0.1c0.1-0.1,0.4-0.1,0.5-0.2c0.1,0,0.1,0,0.2,0
						c-0.2,0.1-0.3,0.2-0.5,0.3c-0.2,0.1-0.3,0.1-0.5,0.2c-0.2,0.1-0.2,0.1-0.5,0.1c-0.4,0.1-0.8-0.1-0.8-0.4
						C95,41.6,95,41.4,95,41.1c0-0.3,0.1-0.6,0.1-0.8c0-0.4,0-0.9,0-1.2c0-0.2,0-0.3,0-0.5c0,0,0-0.1,0-0.1c0.1,0,0.1-0.1,0.2,0
						C95.4,38.5,95.4,38.5,95.5,38.6z M95.8,42c0,0,0.1,0,0.1,0c0,0,0-0.1-0.1-0.2C95.7,41.9,95.7,42,95.8,42z"/>
					<path class="st0" d="M102.4,38.4c0.2,0.1,0.3,0.2,0.3,0.3c0,0.2,0.1,1-0.2,0.8c-0.1-0.1,0,0.1-0.1,0.1c0,0,0,0.1-0.1,0.1
						c-0.2-0.1-0.2-0.3-0.3-0.5c0-0.1-0.1-0.3-0.1-0.4c0-0.2-0.4-0.3-0.7-0.2c0.1,0,0.1,0,0.1,0c0,0,0,0,0,0
						c-0.1,0.1-0.2,0.1-0.3,0.2c-0.1,0.1-0.2,0.2-0.2,0.4c0,0.2-0.1,0.3-0.2,0.5c0,0.1-0.1,0.2-0.1,0.3c0,0.2,0,0.6,0,0.7
						c0,0,0,0.1,0,0.1c0,0.1,0,0.2,0,0.3c0,0.1,0.1,0.1,0.1,0.2c0,0.2,0.1,0.3,0.2,0.5c0.1,0.1,0.2,0.2,0.4,0.1l0.3,0
						c0.1,0,0.1,0,0.2,0c0.2-0.1,0.3-0.1,0.5-0.2c0,0,0.1,0,0.2-0.1c0.1-0.1,0.2-0.1,0.3-0.2c0.1,0,0.2-0.1,0.2-0.1
						c0,0-0.1,0.1,0,0.2c0,0,0,0,0,0c-0.1,0.1-0.2,0.1-0.2,0.1c-0.1,0.1-0.1,0.1-0.1,0.1c-0.1,0-0.1,0.1-0.2,0.1c0,0-0.1,0-0.1,0.1
						c-0.2,0.1-0.2,0.2-0.4,0.2c-0.2,0-0.3,0.1-0.4,0.2c-0.1,0.1-0.3,0.1-0.5,0.1c-0.2,0-0.2,0-0.3,0c0,0-0.1,0-0.1,0
						c0,0-0.1,0-0.1,0c0,0,0,0,0,0c-0.2,0-0.3-0.1-0.4-0.1c-0.1,0-0.3-0.2-0.4-0.3c-0.1-0.2-0.2-0.3-0.2-0.5c0-0.1,0-0.2-0.1-0.4
						c0-0.1,0-0.1,0-0.2c0,0,0-0.1,0-0.1c0-0.1,0-0.1,0-0.2c0-0.3,0-0.5,0.1-0.8c0-0.1,0-0.2,0.1-0.4c0.1-0.3,0.3-0.7,0.6-1
						c0,0,0,0,0,0c0,0,0,0,0,0c0.1,0,0.1,0,0.1,0c0.1-0.1,0.2-0.1,0.3-0.2c0,0,0,0,0.1,0c0.2,0,0.4,0,0.5,0
						C101.7,38.2,102.1,38.2,102.4,38.4z M99.8,39.8c0,0,0,0.2,0,0.2c0,0,0.1,0.1,0.1,0c0-0.1,0.1-0.6,0-0.6
						C99.9,39.4,99.8,39.8,99.8,39.8z"/>
					<path class="st0" d="M104.3,38.6c0.1,0.1,0.1,0.2,0.1,0.2c0,0.1,0,0.1,0.1,0.2c0-0.1,0-0.2,0-0.2c0.1,0,0.1,0,0.1,0
						c0,0.1,0.1,0.2,0.1,0.3c0.1,0.2,0.1,0.5,0.1,0.9c0,0.2,0,0.5,0,0.7c0,0.2,0,0.4,0,0.6c0,0.1,0,0.2,0,0.3c0,0.1,0,0.2,0.1,0.3
						c0.1,0,0.1,0,0.2-0.1c0,0,0,0,0.2-0.1c0.1,0,0.2-0.1,0.2-0.1c0.1-0.1,0.4-0.1,0.5-0.2c0.1,0,0.1,0,0.2,0
						c-0.2,0.1-0.3,0.2-0.5,0.3c-0.2,0.1-0.3,0.1-0.5,0.2c-0.2,0.1-0.2,0.1-0.5,0.1c-0.4,0.1-0.8-0.1-0.8-0.4
						c-0.1-0.2-0.1-0.5-0.1-0.7c0-0.3,0.1-0.6,0.1-0.8c0-0.4,0-0.9,0-1.2c0-0.2,0-0.3,0-0.5c0,0,0-0.1,0-0.1c0.1,0,0.1-0.1,0.2,0
						C104.2,38.5,104.2,38.5,104.3,38.6z M104.6,42c0,0,0.1,0,0.1,0c0,0,0-0.1-0.1-0.2C104.5,41.9,104.5,42,104.6,42z"/>
					<path class="st0" d="M107,39.8c0,0-0.2,0-0.2,0.1C106.9,39.9,106.9,39.9,107,39.8c0.1,0,0.3,0,0.5,0c0,0,0.1,0,0.1,0
						c0.1,0,0.1,0,0.2,0.1l0.1,0c0.1,0,0.3,0.3,0.3,0.4c0,0.1,0,0.2-0.1,0.3c0,0.1-0.1,0.1-0.2,0.1c0,0,0,0,0,0
						c-0.1,0-0.2,0.1-0.4,0.2c-0.1,0-0.2,0.1-0.3,0.1c-0.1,0-0.2,0.1-0.3,0.1c0.1,0.1,0.1,0.2,0.2,0.3c0.1,0.1,0.1,0.1,0.2,0.1
						c0.1,0.1,0.2,0.1,0.3,0.1c0.4-0.1,0.6-0.1,0.9-0.3c0.1-0.1,0.1-0.1,0.3-0.1c0.1,0,0.1,0,0.2-0.1c0,0,0.1,0,0.1,0
						c0,0.1-0.1,0.1-0.2,0.2c0,0-0.1,0-0.1,0.1c-0.1,0.1-0.4,0.2-0.4,0.2c-0.2,0.1-0.1,0-0.3,0.1c0,0-0.2,0.1-0.2,0.1
						c-0.1,0.1-0.3,0.1-0.3,0.1c-0.2,0.1-0.4,0.1-0.6,0.1c-0.1,0-0.3,0-0.4-0.1c-0.2-0.1-0.4-0.2-0.4-0.4c0,0,0,0,0-0.1
						c0-0.1-0.1-0.1-0.1-0.2c0,0,0-0.2,0-0.3c0-0.2,0-0.4,0.1-0.6c0.1-0.2,0.1-0.4,0.3-0.6c0.1-0.1,0.2-0.1,0.4-0.2
						C106.9,39.8,107,39.8,107,39.8z M106.7,41.8c0.1,0.1,0.2,0.2,0.3,0.2c0,0,0,0,0,0c-0.1-0.1-0.1-0.1-0.2-0.2
						c-0.1-0.1-0.1-0.1-0.2-0.2C106.7,41.7,106.7,41.7,106.7,41.8z M107,40.1c-0.1,0.1-0.1,0.2-0.1,0.3c0,0.2,0,0.4,0,0.6
						c0,0,0,0.1,0,0.1c0.1,0,0.1-0.1,0.2-0.1c0.1-0.1,0.2-0.1,0.3-0.2c0.1-0.1,0.1-0.1,0.2-0.3c0,0,0-0.1,0-0.1c0-0.1,0-0.2,0-0.2
						c0-0.1-0.1-0.1-0.1-0.2c0,0-0.1-0.1-0.1-0.1C107.2,40,107.1,40,107,40.1z M107.3,42c0,0-0.1-0.1-0.1-0.1
						C107.2,42,107.2,42,107.3,42z"/>
					<path class="st0" d="M111.2,40c0.1,0.1,0.2,0.2,0.1,0.3v0c0.1,0.1,0,0.2,0,0.4c0,0,0,0.1,0,0.1c0,0.2,0,0.4,0,0.6
						c0,0.1,0,0.2-0.1,0.3c0,0.1,0,0.1,0,0.2c0.1,0,0.2,0,0.3-0.1c0.3-0.1,0.6-0.3,0.8-0.4c0,0.1,0,0.1-0.1,0.2
						c-0.1,0.1-0.3,0.2-0.4,0.2c-0.1,0.1-0.3,0.1-0.4,0.2c-0.2,0.1-0.3,0.1-0.6,0.1c-0.1,0-0.1,0-0.2-0.1c0,0-0.1-0.1-0.1-0.1
						c0,0-0.1,0-0.1,0c0,0,0,0-0.1,0c-0.1,0-0.1,0.1-0.3,0.1c-0.1,0-0.2,0-0.3,0c-0.1,0-0.1,0,0,0c0.2,0,0,0-0.3,0
						c-0.1,0-0.4,0-0.4-0.1c-0.2-0.2-0.2-0.2-0.2-0.3l0-0.2c0-0.2,0.1-0.4,0.3-0.5c0.2-0.1,0.4-0.2,0.7-0.3c0.1,0,0.3,0,0.4-0.1
						c0.1,0,0.2,0,0.3,0c0-0.1,0-0.4,0-0.6c0-0.1,0-0.1-0.2-0.1c-0.3,0.1-0.4,0.1-0.7,0.1c0,0-0.1,0-0.1,0c-0.2,0.1-0.3,0-0.4,0
						c0,0,0,0,0,0c0.2,0,0.4-0.1,0.6-0.1c0.2,0,0.3-0.1,0.5-0.1c0.1,0,0.1,0,0.2,0c0.1,0,0.2,0,0.3,0c0.1,0,0.2,0.1,0.3,0.1
						c0,0,0,0-0.1-0.1c-0.1,0-0.1,0,0,0C110.9,39.9,111.1,39.9,111.2,40z M109.1,41.9c0.1,0,0.1,0.1,0.1,0.1c0.1,0,0.1,0.1,0.2,0.1
						C109.3,42,109.2,42,109.1,41.9C109.2,41.9,109.1,41.8,109.1,41.9C109.1,41.9,109,41.9,109.1,41.9z M110.3,40.9
						C110.3,40.9,110.3,41,110.3,40.9c-0.1,0-0.1,0-0.2,0.1c-0.1,0-0.1,0.1-0.2,0.1c-0.1,0-0.2,0.1-0.2,0.1c-0.2,0.2-0.1,0.5,0,0.6
						c0.1,0.1,0.1,0.1,0.3,0.1c0.1,0,0.3-0.1,0.3-0.1c0.1,0,0.1,0,0.1-0.1c0,0,0-0.1,0-0.1c0-0.1-0.1-0.2,0-0.3c0-0.1,0-0.1,0-0.2
						c0-0.1,0-0.1,0-0.2C110.4,40.9,110.3,40.9,110.3,40.9z"/>
					<path class="st0" d="M114.9,40L114.9,40c0.1,0.1,0.2,0.2,0.2,0.4c0,0.3,0,0.5,0,0.8c0,0.1,0,0.3,0,0.4c0,0.1,0.1,0.2,0.1,0.3
						c0,0.1,0.3,0.1,0.3,0.1c0.3-0.1,0.5-0.2,0.8-0.4c0,0,0,0,0.1,0c0,0.1-0.1,0.2-0.2,0.2c-0.1,0-0.3,0.1-0.4,0.2
						c-0.1,0.1-0.1,0.1-0.3,0.1c-0.1,0.1-0.1,0.1-0.3,0.1c-0.1,0-0.1,0.1-0.2,0.1c-0.2,0-0.4,0-0.6-0.2c-0.1-0.1-0.2-0.3-0.2-0.5
						c0-0.2,0-0.4,0-0.5c0-0.3,0-0.5,0.1-0.8c0-0.1,0-0.1,0-0.2c0-0.1-0.1-0.1-0.2,0c-0.3,0.2-0.5,0.3-0.7,0.6
						c-0.1,0.2-0.1,0.3-0.1,0.5c0,0.1,0,0.1,0,0.2c0,0.2-0.1,0.5,0,0.7c0,0.1,0,0.1-0.1,0.1c0,0-0.1,0-0.1,0c-0.1,0.1-0.2,0-0.3,0
						c0,0-0.1-0.1-0.1-0.1c0,0,0,0,0,0.1c-0.1,0-0.1-0.1-0.1-0.1c-0.1-0.1-0.1-0.3-0.1-0.4c0-0.3,0-0.5,0-0.7v-1
						c0-0.1,0-0.1,0.1-0.1c0,0,0.1,0,0.1,0c0.1,0,0.2,0,0.2,0c0.1,0,0.2,0.1,0.2,0.1c0.1,0,0.1,0.1,0.1,0.2c0,0.1,0,0.2,0.1,0.3
						c0.1,0,0.1-0.1,0.1-0.1c0.1-0.1,0.2-0.3,0.4-0.4c0.2-0.1,0.4-0.2,0.6-0.1C114.6,39.9,114.8,39.9,114.9,40z"/>
					<path class="st0" d="M117.1,39.8c0,0-0.2,0-0.2,0.1C117,39.9,117,39.9,117.1,39.8c0.1,0,0.3,0,0.5,0c0,0,0.1,0,0.1,0
						c0.1,0,0.1,0,0.2,0.1l0.1,0c0.1,0,0.3,0.3,0.3,0.4c0,0.1,0,0.2-0.1,0.3c0,0.1-0.1,0.1-0.2,0.1c0,0,0,0,0,0
						c-0.1,0-0.2,0.1-0.4,0.2c-0.1,0-0.2,0.1-0.3,0.1c-0.1,0-0.2,0.1-0.3,0.1c0.1,0.1,0.1,0.2,0.2,0.3c0.1,0.1,0.1,0.1,0.2,0.1
						c0.1,0.1,0.2,0.1,0.3,0.1c0.4-0.1,0.6-0.1,0.9-0.3c0.1-0.1,0.1-0.1,0.3-0.1c0.1,0,0.1,0,0.2-0.1c0,0,0.1,0,0.1,0
						c0,0.1-0.1,0.1-0.2,0.2c0,0-0.1,0-0.1,0.1c-0.1,0.1-0.4,0.2-0.4,0.2c-0.2,0.1-0.1,0-0.3,0.1c0,0-0.2,0.1-0.2,0.1
						c-0.1,0.1-0.3,0.1-0.3,0.1c-0.2,0.1-0.4,0.1-0.6,0.1c-0.1,0-0.3,0-0.4-0.1c-0.2-0.1-0.4-0.2-0.4-0.4c0,0,0,0,0-0.1
						c0-0.1-0.1-0.1-0.1-0.2c0,0,0-0.2,0-0.3c0-0.2,0-0.4,0.1-0.6c0.1-0.2,0.1-0.4,0.3-0.6c0.1-0.1,0.2-0.1,0.4-0.2
						C117,39.8,117.1,39.8,117.1,39.8z M116.9,41.8c0.1,0.1,0.2,0.2,0.3,0.2c0,0,0,0,0,0c-0.1-0.1-0.1-0.1-0.2-0.2
						c-0.1-0.1-0.1-0.1-0.2-0.2C116.8,41.7,116.8,41.7,116.9,41.8z M117.2,40.1c-0.1,0.1-0.1,0.2-0.1,0.3c0,0.2,0,0.4,0,0.6
						c0,0,0,0.1,0,0.1c0.1,0,0.1-0.1,0.2-0.1c0.1-0.1,0.2-0.1,0.3-0.2c0.1-0.1,0.1-0.1,0.2-0.3c0,0,0-0.1,0-0.1c0-0.1,0-0.2,0-0.2
						c0-0.1-0.1-0.1-0.1-0.2c0,0-0.1-0.1-0.1-0.1C117.3,40,117.3,40,117.2,40.1z M117.4,42c0,0-0.1-0.1-0.1-0.1
						C117.3,42,117.3,42,117.4,42z"/>
					<path class="st0" d="M120.1,40.1C120.1,40.1,120.1,40.1,120.1,40.1C120.1,40.1,120.1,40.1,120.1,40.1c0.1,0,0.2-0.1,0.4-0.1
						c0.2-0.1,0.4-0.1,0.6-0.1c0.1,0,0.3,0.1,0.4,0.2c0,0.1-0.1,0.1-0.2,0c-0.1,0-0.1,0-0.1,0c-0.1,0-0.2,0-0.2,0.1l-0.1,0
						c-0.2,0.1-0.4,0.1-0.5,0.3c0,0.1,0,0.1-0.1,0.2c-0.1,0-0.1,0.1-0.1,0.1c0,0.1,0,0.2,0,0.3c0,0.2,0,0.4,0.1,0.6
						c0,0.1,0,0.2,0,0.3c0,0-0.1,0.2-0.2,0.3c-0.1-0.1-0.2-0.1-0.3,0c-0.1,0-0.1,0-0.1,0c0,0,0,0,0,0h0c-0.2-0.1-0.2-0.2-0.2-0.4
						c0-0.2,0-0.5-0.1-0.7c0-0.1,0-0.2,0-0.3c0-0.1,0-0.3,0-0.4c0-0.1,0-0.1,0-0.2c0-0.1,0-0.2,0-0.3c0,0,0,0,0,0c0,0,0,0,0.1,0
						c0.1,0,0.1-0.1,0.1-0.1c0.1,0,0.2,0,0.2-0.1c0,0,0.1,0,0.1,0C119.9,39.9,120.1,39.9,120.1,40.1z M121.4,40.2
						C121.4,40.2,121.3,40.2,121.4,40.2c-0.2,0-0.3,0-0.4,0c-0.1,0-0.1,0.1-0.2,0.1c0,0,0.1,0,0.1-0.1l0.1,0c0.1,0,0.1,0,0.1-0.1
						C121.2,40.1,121.3,40.1,121.4,40.2z"/>
					<path class="st0" d="M123.5,39.8C123.6,39.8,123.3,39.9,123.5,39.8c0,0.1-0.1,0.1-0.2,0.2c0,0-0.1,0-0.1,0
						c-0.1,0-0.2,0-0.2,0.1c-0.1,0.1-0.2,0.1-0.2,0.2c0,0,0,0.1,0,0.1c0,0.1,0.3,0.2,0.3,0.3c0.2,0.1,0.4,0.2,0.5,0.3
						c0.1,0.1,0.2,0.5,0.2,0.6c0,0.1-0.2,0.2-0.3,0.3c-0.1,0.2-0.4,0.2-0.6,0.3c0,0-0.1,0-0.1,0c-0.1,0-0.3,0-0.4,0
						c-0.1,0-0.3,0-0.3-0.1c0,0,0.1,0-0.2-0.1c-0.2-0.1-0.2-0.1-0.2-0.1c-0.1-0.1,0,0,0,0c0,0-0.1-0.1-0.1-0.1c0,0,0,0,0.1,0
						c0.1,0,0.2,0.1,0.2,0c0,0-0.2-0.1-0.2-0.2c0-0.1,0.1,0,0.2,0c0.1,0,0.2,0.1,0.3,0.1c0.1,0,0.3,0,0.4,0c0.1-0.1,0.2-0.1,0.2-0.2
						c0-0.1,0-0.3-0.2-0.5c-0.1-0.1-0.4-0.3-0.5-0.4c-0.2-0.1-0.2-0.3-0.1-0.5c0.1-0.1,0.1-0.2,0.4-0.3c0,0,0.1,0,0.1,0
						c0.1-0.1,0.3-0.1,0.4-0.1c0.1,0,0.2,0,0.4-0.1C123.3,39.8,123.4,39.8,123.5,39.8z M122.4,40.7c-0.1,0,0.1,0.1,0.2,0.2l0.2,0.2
						c0,0,0.1,0.1,0.1,0.1c0,0,0,0,0-0.1c0,0,0,0-0.1-0.1l-0.2-0.2L122.4,40.7z"/>
					<path class="st0" d="M125.2,41.7c0,0.1,0.1,0.1,0.2,0.1c0,0,0.1,0,0.1,0.1c0,0.1,0,0.1,0,0.2c0,0.1-0.2,0.1-0.3,0.1
						c-0.1,0-0.2,0-0.3,0c0,0-0.1,0-0.1,0c-0.1-0.1-0.2-0.1-0.2-0.2c0-0.1,0.1-0.2,0.2-0.2c0.1,0,0.2-0.1,0.3-0.1
						C125,41.6,125.2,41.6,125.2,41.7z"/>
				</g>
			</g>
		</g>
		<g>
			<path class="st0" d="M76.7,23.1l0.2,0.5c0.2,0.6,0.7,1.1,1.3,1.3l0.5,0.2l-0.5,0.2c-0.6,0.2-1.1,0.7-1.3,1.3L76.7,27l-0.2-0.5
				c-0.2-0.6-0.7-1.1-1.3-1.3L74.7,25l0.5-0.2c0.6-0.2,1.1-0.7,1.3-1.3L76.7,23.1z"/>
			<path class="st0" d="M99,10.3l0.2,0.7c0.2,0.8,0.8,1.4,1.6,1.6l0.7,0.2l-0.7,0.2c-0.8,0.2-1.4,0.8-1.6,1.6L99,15.3l-0.2-0.7
				c-0.2-0.8-0.8-1.4-1.6-1.6l-0.7-0.2l0.7-0.2c0.8-0.2,1.4-0.8,1.6-1.6L99,10.3z"/>
			<path class="st0" d="M103.1,14.5l0.2,0.6c0.2,0.7,0.7,1.2,1.4,1.4l0.6,0.2l-0.6,0.2c-0.7,0.2-1.2,0.7-1.4,1.4l-0.2,0.6l-0.2-0.6
				c-0.2-0.7-0.7-1.2-1.4-1.4l-0.6-0.2l0.6-0.2c0.7-0.2,1.2-0.7,1.4-1.4L103.1,14.5z"/>
			<path class="st0" d="M94.8,25.3c-0.2-0.2-0.3-0.6-0.2-0.9c0-0.1,0.8-1.7,2.6-2.7v-2.1h3.9l-12.1-6l-12.1,6h3.9v5.6h4.5
				c0,0,0-0.7,0-2.9c0-1.2,1-1.8,2-2.1c1.1-0.3,2.3-0.3,3.4,0c1,0.3,2,0.9,2,2.1c0,2.2,0,2.9,0,2.9H94.8z"/>
			<path class="st0" d="M95.3,24.7c0,0,1.2-2.8,4.6-2.9c0,0,1.3,0.2,1.9,1.2c0,0-0.4-0.9-1-1.6c0,0,1.1-0.4,1.6,0.3
				c0.5,0.6,1.1,2.4,0,3.9c0,0,0.7,0.9,1.5,1.4l-0.5,0.5c0,0-1.3-0.5-2.1-1.5C101.5,26,98.1,26.6,95.3,24.7z"/>
		</g>
	</g>
	<g>
		<path class="st1" d="M133.9,10.2c0.4,0,0.9,0.1,1.3,0.1V4.1h-9c0.1,0.4,0.2,0.9,0.3,1.3h7.4V10.2z"/>
		<path class="st1" d="M135.2,12v-1.2c0,0-0.1,0-0.1,0c-0.4,0-0.8-0.1-1.2-0.1v1.5C134.3,12.1,134.7,12,135.2,12z"/>
		<path class="st1" d="M135.2,15.6v-3.1c-0.4,0-0.9,0.1-1.3,0.2v2.9H135.2z"/>
		<path class="st1" d="M135.2,21.1v-5h-1.3V23C134.3,22.4,134.8,21.8,135.2,21.1z"/>
		<path class="st1" d="M135.2,31v-8.9c-0.4,0.6-0.9,1.1-1.3,1.7v6.5C134.3,30.5,134.8,30.7,135.2,31z"/>
		<path class="st1" d="M135.2,33.5v-1.8c-0.4-0.3-0.8-0.5-1.3-0.7v1.4C134.3,32.6,134.8,33.1,135.2,33.5z"/>
		<path class="st1" d="M133.9,33v3.3c0.4,0,0.9-0.1,1.3-0.1v-2C134.8,33.8,134.3,33.4,133.9,33z"/>
		<path class="st1" d="M121.5,5.4h2.4c-0.1-0.5-0.2-0.9-0.4-1.3h-3.2C120.7,4.5,121.1,4.9,121.5,5.4z"/>
		<path class="st1" d="M119.2,4.5c-0.2-0.1-0.2-0.3-0.2-0.5h-1.5c-0.3,0.4-0.6,0.9-0.9,1.3h3.5C119.8,5.1,119.5,4.8,119.2,4.5z"/>
		<path class="st1" d="M116.3,4.1h-4.1c0.5,0.5,1,0.9,1.6,1.3h1.7C115.7,4.9,116,4.5,116.3,4.1z"/>
		<path class="st1" d="M110.7,4.2c0,0-0.1-0.1-0.1-0.1h-1.3c0.2,0.4,0.4,0.9,0.6,1.3h2.1C111.6,5,111.2,4.6,110.7,4.2z"/>
		<path class="st1" d="M108.3,4.1h-4.5c-0.6,0.3-1.3,0.5-1.9,0.8c-0.3,0.1-0.7,0.3-1,0.5h8C108.6,4.9,108.4,4.5,108.3,4.1z"/>
		<path class="st1" d="M52.8,4.1h-8v5.2c0.4-0.1,0.9-0.2,1.3-0.4V5.4h5.7C52.1,4.9,52.5,4.5,52.8,4.1z"/>
		<path class="st1" d="M57.9,4.1h-3.3c0.2,0.4,0.4,0.9,0.5,1.3h2.5C57.7,4.9,57.8,4.5,57.9,4.1z"/>
		<path class="st1" d="M81.2,4.3c1.8,0.3,3.7,0.6,5.4,1.1h5.6C92.1,5,92,4.5,91.9,4.1H80.1C80.4,4.2,80.8,4.3,81.2,4.3z"/>
		<path class="st1" d="M66,4.1h-2.8c0,0.4,0.1,0.9,0.1,1.3h2.5C65.8,4.9,65.9,4.5,66,4.1z"/>
		<path class="st1" d="M72.8,5.4h5.9c-0.2-0.1-0.4-0.1-0.6-0.2c-0.9-0.3-1.9-0.6-2.9-0.7c-0.4,0-0.6-0.2-0.7-0.5h-2.7
			C72.1,4.5,72.5,5,72.8,5.4z"/>
		<path class="st1" d="M70.7,4.1c-0.2,0.4-0.5,0.9-0.8,1.3h1.6C71.2,5,70.9,4.6,70.7,4.1z"/>
		<path class="st1" d="M69.5,4.1H67c-0.1,0.4-0.2,0.9-0.2,1.3h1.7C68.9,5,69.2,4.5,69.5,4.1z"/>
		<path class="st1" d="M61.5,4.1h-2.8c-0.1,0.4-0.2,0.9-0.3,1.3h3.2C61.6,4.9,61.6,4.5,61.5,4.1z"/>
		<path class="st1" d="M53.7,4.2c-0.3,0.4-0.6,0.8-0.9,1.2h1.4C54.1,5,53.9,4.6,53.7,4.2z"/>
		<path class="st1" d="M44.8,24.4v2.4c0.4-0.1,0.9-0.1,1.3-0.2v-2.3H44.8z"/>
		<path class="st1" d="M46.1,16.6v-3.2c-0.1,0-0.2,0-0.3,0.1c-0.1,0.1-0.2,0.2-0.4,0.3c-0.2,0.1-0.4,0.2-0.7,0.3v2.2
			C45.3,16.4,45.7,16.5,46.1,16.6z"/>
		<path class="st1" d="M44.8,16.8V20c0.4,0.1,0.9,0.1,1.3,0.2v-3.1C45.7,17,45.3,16.9,44.8,16.8z"/>
		<path class="st1" d="M44.8,20.4v1.3h1.3v-1.1C45.7,20.5,45.3,20.5,44.8,20.4z"/>
		<rect x="44.8" y="22.1" class="st1" width="1.3" height="1.9"/>
		<path class="st1" d="M46.1,33.9v-3.3c-0.3-0.1-0.5-0.4-0.7-0.7c0-0.1-0.1-0.2-0.1-0.3c-0.2,0-0.4,0-0.6,0v3.4
			C45.3,33.4,45.7,33.6,46.1,33.9z"/>
		<path class="st1" d="M44.8,33.6v2.8c0.4,0,0.9,0.1,1.3,0.1v-2.2C45.7,34.1,45.3,33.8,44.8,33.6z"/>
		<path class="st1" d="M44.8,36.8v2.6c0.4,0,0.9,0,1.3,0v-2.4C45.7,36.8,45.3,36.8,44.8,36.8z"/>
		<path class="st1" d="M44.8,39.7v2.1c0.5-0.1,0.9-0.3,1.3-0.5v-1.6C45.7,39.7,45.3,39.7,44.8,39.7z"/>
		<path class="st1" d="M44.8,44.7c0.4-0.2,0.9-0.4,1.3-0.6v-2.4c-0.4,0.2-0.9,0.3-1.3,0.5V44.7z"/>
		<path class="st1" d="M73.9,55.9h4.2c-0.9-0.3-1.7-0.8-2.5-1.3h-2.4C73.5,55.1,73.7,55.5,73.9,55.9z"/>
		<path class="st1" d="M68.1,54.6v1.3h1.7c0.2-0.4,0.5-0.9,0.6-1.3H68.1z"/>
		<path class="st1" d="M63,54.6c0.1,0.4,0.1,0.9,0.1,1.3h3.6v-1.3H63z"/>
		<path class="st1" d="M55.2,54.6c0.2,0.5,0.5,0.9,0.7,1.3h1.6c0.1-0.4,0.2-0.9,0.3-1.3H55.2z"/>
		<path class="st1" d="M46.1,49v-2.1c-0.4,0.2-0.9,0.4-1.3,0.6v1.6C45.3,49,45.7,49,46.1,49z"/>
		<path class="st1" d="M44.8,50.4v1.2c0.4,0,0.9,0,1.3-0.1v-1.2C45.7,50.3,45.3,50.4,44.8,50.4z"/>
		<path class="st1" d="M46.1,54.6v-1.7c-0.4,0-0.9,0-1.3,0.1v3h7.3c0.5-0.4,1-0.8,1.4-1.3H46.1z"/>
		<path class="st1" d="M59.2,54.6c-0.1,0.4-0.2,0.9-0.3,1.3h2.3c0-0.4,0-0.9,0.1-1.3H59.2z"/>
		<path class="st1" d="M72.4,55.9c-0.2-0.4-0.4-0.8-0.6-1.2c-0.2,0.4-0.3,0.8-0.5,1.2H72.4z"/>
		<path class="st1" d="M135.2,40.1v-1.2c-0.4,0-0.9,0-1.3,0.1v1.8C134.3,40.4,134.7,40.2,135.2,40.1z"/>
		<path class="st1" d="M135.2,42.2v-1.6c-0.5,0.2-0.9,0.4-1.3,0.7v1.4C134.3,42.5,134.7,42.3,135.2,42.2z"/>
		<path class="st1" d="M135.2,51.7v-8.9c-0.4,0.1-0.9,0.3-1.3,0.4v7.2C134.3,50.8,134.7,51.3,135.2,51.7z"/>
		<path class="st1" d="M135.2,55.5v-3.1c-0.4-0.4-0.9-0.8-1.3-1.3v3.4h-0.3C134.1,54.9,134.6,55.2,135.2,55.5z"/>
		<path class="st1" d="M116.2,55.9h5.6c-0.4-0.4-0.7-0.8-1.1-1.3h-5.1C115.9,55.1,116,55.5,116.2,55.9z"/>
		<path class="st1" d="M112.7,55.9h2.3c-0.2-0.4-0.4-0.9-0.6-1.3h-2.2C112.3,55.1,112.5,55.5,112.7,55.9z"/>
		<path class="st1" d="M103.5,55.9h5.9c-0.3-0.4-0.6-0.9-0.8-1.3H103C103.2,55,103.3,55.5,103.5,55.9z"/>
		<path class="st1" d="M91.6,54.6H78.5c1.5,0.6,3.1,1,4.6,1.3h8.9C91.7,55.6,91.5,55.1,91.6,54.6z"/>
		<path class="st1" d="M110.7,55.9h0.8c-0.2-0.4-0.3-0.9-0.4-1.3h-1.3C110.1,55.1,110.4,55.5,110.7,55.9z"/>
		<path class="st1" d="M126.1,55.9h5.4c-0.8-0.4-1.6-0.9-2.4-1.3h-4.5c0,0.1,0,0.1,0,0.2C125.1,55.2,125.6,55.6,126.1,55.9z"/>
	</g>
	<path class="st0" d="M134.4,58.5H45.6c-1.8,0-3.3-1.5-3.3-3.3V4.9c0-1.8,1.5-3.3,3.3-3.3h88.8c1.8,0,3.3,1.5,3.3,3.3v50.3
		C137.7,57,136.2,58.5,134.4,58.5z M45.6,2.4c-1.3,0-2.4,1.1-2.4,2.4v50.3c0,1.3,1.1,2.4,2.4,2.4h88.8c1.3,0,2.4-1.1,2.4-2.4V4.9
		c0-1.3-1.1-2.4-2.4-2.4H45.6z"/>
</g>
</svg>
